<svg xmlns="http://www.w3.org/2000/svg" viewBox="0 0 415.86 496.86"><title>Page_not_found404_virtual_reality_technologies</title><g id="Layer_2" data-name="Layer 2"><g id="Layer_1-2" data-name="Layer 1"><g id="cV3ToQ"><path d="M156,121.58c.34,0,.9,0,1-.12.93-1.87,2.8-1.28,4.27-1.69.2-.05.55,0,.59-.08.84-2,2.95-2,4.49-2.91,1.12-.64,2.13-1.43,3.31-2,.82-.4,1.76.09,2.51-.72.33-.35,1.37,0,1.34-1.06,0-.07.19-.21.28-.2,2.36.29,4-1.46,5.92-2.22.9-.35,1.77-.76,2.66-1.13.49-.2,1.31.08,1.09-1-.07-.36.45,0,.64-.12,1.54-.71,3.37-.73,4.7-1.92a.93.93,0,0,1,.94-.21,1.9,1.9,0,0,0,1.83-.66c.84-1.25,2.19-1.36,3.33-1.95s2-1.6,3.34-1.78c.33,0-.92-.49,0-.84.5-.18.75.1,1.12.17s.78-.35,1-.64c.29-.45.37-1.05.88-.18.25.43.34,0,.53-.1,1.28-.58,2.1-2,3.67-2,.45-1.61,2.28-.66,3.22-1.8a7,7,0,0,1,3.56-1.77,11.62,11.62,0,0,0,3.44-1.39l2.91-1.77a2.35,2.35,0,0,1,1.49-.48,1.93,1.93,0,0,0,1.63-.64,4,4,0,0,1,1.89-.93,7.43,7.43,0,0,0,3-2,2.36,2.36,0,0,1,2.37-.85,2.22,2.22,0,0,0,2-.72c1-.83,1.83-1.83,3.38-1.64.83.1,1.3-.88,2.18-1.16,2.13-.67,4.11-1.78,6.32-2.28A6.86,6.86,0,0,0,245,79.69,20.59,20.59,0,0,1,248.7,78a8.67,8.67,0,0,0,3.11-1.56c.3-.25.63-.18.94-.28a94.76,94.76,0,0,0,10.42-4.06,2.08,2.08,0,0,1,.58-.22c.7-.08.19-1.71,1.46-1.08.72.35,1-.71,1.82-.64.65.06,1.31-.63,2.05-.81a18.87,18.87,0,0,0,4.77-2.77,1,1,0,0,1,.71-.26,4.54,4.54,0,0,0,3.68-1.58,4.66,4.66,0,0,1,2.5-1.2c.2,0,.48,0,.59-.14,1.49-1.67,3.94-1.57,5.55-3.08,1.18-1.11,2.89-1.34,4.32-2,.69-.34,1.5-.38,1.33-1.45,0-.17.1-.54.31-.4,1.29.92,1.47-.85,2.38-.95a10.8,10.8,0,0,0,2.64-.83,3.25,3.25,0,0,0,.79-.61c.41-.34,2.91-1.5,3.33-1.33,1,.39,1.2-.62,1.77-.92,2-1,4.07-1.8,5.83-3.26a7.87,7.87,0,0,1,2.74-1.06A8.21,8.21,0,0,0,315,46.12c.05,0,.11-.13.16-.13,2.27.23,3.26-2,5.07-2.63.58-.2,1-.66,1.69-.72.45,0,1-.17,1.09-.76s.49-.37.84-.49c1.08-.38,2.49-.08,3.15-1.49.3-.64,1-.16,1.51-.15.12.26,0,.73.57.59.09,0,.22-.2.2-.28-.11-.51-.55-.11-.8-.28a2.29,2.29,0,0,1,1.79-1.2c.74-.13,2,.45,1.7-1.15,1-.38,2-.78,3-1.15a7.13,7.13,0,0,0,3.54-2.18c0-.06.07-.16.11-.17,2.51-.28,4.09-3,6.85-2.63.25,0,.66.29.73,0,.37-1.61,2-1.65,3-2.58.66-.67,1.81-.71,2.17-1.76a.41.41,0,0,1,.34-.19c1.85.22,3.13-1,4.53-1.85.77-.46,1.62-.66,2.39-1.12,1.3-.76,3-.9,4-2.23.71-.93,1.91-.29,2.77-.81a12.94,12.94,0,0,1,2.52-1.56,13.15,13.15,0,0,0,3.43-1.46c1-.67,2.38-.64,3.5-1.23.88-.46,2.19-.6,2.61-1.3a1.74,1.74,0,0,1,1.84-1.06c.63,0,1.14-1.21,2.16-.89,1.37-1.29,3.49-1.08,4.88-2.48a7.36,7.36,0,0,1,2.15-1c1.68-.71,3.18-2,4.8-2.43s3-1.95,4.75-2.18c.42-.05.5-.4.73-.61.64-.56,1.13-1.42,2.2-1.28a.65.65,0,0,0,.54-.25c.69-1.41,2.11-1.39,3.34-1.72.75-.2,1-.94,1.63-1.3h2.07c.31.72,1.11.22,1.55.62.67.39.73,1.24,1.38,1.71a4.3,4.3,0,0,1,1.81,3.26c0,.32-.06.84.3.9,1.46.23,1,1.5,1.34,2.33-.37,1.61-.07,3.26-.19,4.89-.06.74.48,1.44-.76,1.48-.3,0-.2.25-.08.39.31.35.62.77,1.19.45l.28.38c.23.39,0,.51-.3.74-.55.44-.46,1.08.13,1.85l.2,1.12c-.23.17-.49.34,0,.57.65.57-.32,1.26.14,1.84-.68.44.93,1.08-.2,1.64-.49.25.14,1.56-.18,1.84-.77.68.23,1.34,0,1.46-1.19.7-.16,1.4,0,1.89.43,1-.34,2.14.48,3-.94.63.34,1,.2,1.45s-.46,1.13-.63,1.71a8,8,0,0,0-.06,1,37.55,37.55,0,0,0,.05,4.63,19.74,19.74,0,0,0,.08,4.76,6,6,0,0,1-.24,4.33c-.13.25-.18.59.07.76,1,.66.1,1.47.19,2.19s-1,1.61.29,2.32c.37.2-.24.28-.37.45s-.58.41-.24.82a2,2,0,0,1,.09,2.08c-.29.77.75,1.05.55,1.7a12.34,12.34,0,0,0-.17,4.11c0,1.23.61,2.68-.53,3.8-.16.15-.27.41,0,.49.94.26.13.81.23,1.1.27.73-.28,1.29-.15,2a18.39,18.39,0,0,1,.3,7.3c-.45,2.37,0,4.88-.2,7.33s1.26,5-.22,7.46a2,2,0,0,0,0,1.2,3.12,3.12,0,0,1,.11,2.76c-.24.87.4.82.76,1.1-.46.3-1,.65-.69,1.26a1.37,1.37,0,0,1,0,1.61.87.87,0,0,0,.22,1.13c.7.43.35.84.17,1.35a10.09,10.09,0,0,0-.22,1.76c-.17.93.78,1.81,0,2.67.69,1.06-.24,2.13,0,3.09a3.59,3.59,0,0,1-.16,2.33c-.64.8-.16,1.27.09,1.8a4.89,4.89,0,0,1,.19,2.66c1.16.27-.44.94.21,1.35.87.55,0,1.09-.14,1.59a9,9,0,0,0-.2,1.4c-.19,1.67.13,3.33,0,5a27.4,27.4,0,0,0,0,4.88c.16,1.41.54,2.81-.21,4.18-.26.48.12.91.25,1.36.06.19.71.26.3.43-.84.35-.15.78-.23,1.14s-.36.9-.42,1.37.33.84.8,1c-.24.38-.92.38-.87,1,0,.05.07.1.12.15.59.66.31,1.42.09,2.07s.7,1,.54,1.7a7.85,7.85,0,0,0-.12,4c.21.76-.22,1.54.07,2.33.38,1.05-1,1.24-1.11,2.09,1.09.36,1.15.39,1,.65-.78,1.3-.37,2.66-.17,4,0,.31.32.59.26,1-.22,1.61.51,3.29-.37,4.85-.06.1,0,.28,0,.41-.31,1.62.07,3.26-.05,4.91-.1,1.24-.63,2.8.35,4.05-.88.69,0,1.49,0,2.17,0,1.44-1,2.7-.58,4s0,2.39.11,3.58c-.16,0-.28.12-.21.25s.31.19.48,0c.13.14.73.19.24.45-.78.41-.63.94-.47,1.56.06.22.57.28.25.62a1.25,1.25,0,0,0,.15,2c.37.35.1.58,0,.88-.16.52-.61,1-.35,1.56.34.7-.09,1.4.21,2.16.19.48-.25,1.42.11,2,.48.81-.45,1.15-.44,1.85,0,.5.77.8.33,1.12-.7.5.16,1.22-.38,1.68-.26.22-.11.47,0,.73.48,1.39.2,2.9.56,4.26a3.63,3.63,0,0,1-.2,2.37,4.92,4.92,0,0,0-.2,1.2c-.15,1.67.13,3.33.05,5a19.91,19.91,0,0,0,.11,4.42c.26,1.5.5,3.14-.4,4.62-.29.47.29.86.35,1.32,0,.13.3.23.46.34-.06,0-.18,0-.18.08-.12,1.18-1.3,2.37.06,3.53-1.42.78.21,2-.46,3-.39.58.56,1.36.45,1.83a18.54,18.54,0,0,0-.15,4.79c0,.91.66,1.94-.3,2.81a.71.71,0,0,0,.17,1.08c.88.49,0,.42-.15.6a.51.51,0,0,0,.11.85,2.72,2.72,0,0,0-.84,1.59c0,.7.42.21.67.19l.25.35c-.41,1-1.49,1.44-1.87,2.44,1.31-.23,2,.21,1.65,1.36a9.31,9.31,0,0,0,.06,4.17.27.27,0,0,0-.08.23c-.6,1.27-.06,2.62-.25,3.91H415c.34,1.4,0,2.83.25,4.26a7.3,7.3,0,0,1-.28,4.58c-.17.39-.18,1.16.06,1.36.5.41.18.73.23,1.11.13,1-1.15,2.08.28,2.89-1,.73-.12,1.75-.4,2.55a1.8,1.8,0,0,0,.16,1.73c.18.28.4.39.22.83-.81,1.94-.33,4,0,5.9.12.79-.45.9-.48,1.4a2.29,2.29,0,0,0,.48,1.58c-.89.31-.18,1.1-.49,1.6-.41.67.17,1.3.15,2,0,1.94.85,3.86,0,5.86a4.65,4.65,0,0,0-.09,2.43,18.82,18.82,0,0,1-.06,5.26,7.45,7.45,0,0,0,.23,2.89c.62,1.91-.33,3.51-.51,5.23-.05.52-.6.68-1.16.53-.4-.11-.76,0-.55.5.43.91-.19,1.68-.25,2.51,0,.2-.15.55-.21.55-1.57-.13-1.06,1.22-1.44,1.95-.24.46.2,1.33-.53,1.39s-1.6,1-2.68.25c-2.6-1.71-5.69-2.48-8.35-4.14-1.7-1.06-3.71-1.64-5.31-2.93-1.11.63-1.3-.89-2.24-1a4.44,4.44,0,0,1-2.33-1.11,17.25,17.25,0,0,0-2.45-1.18c-1.66-1-3.54-1.53-5.3-2.35a2,2,0,0,0-1.33-.37.66.66,0,0,1-.89-.59c0-.17-.24-.31-.33-.47-.4-.7-1.62,1.31-1.74-.57-.06-.93-1.2-.69-1.8-1.06a8.69,8.69,0,0,0-3.67-1.38c-.2,0-.46,0-.59-.12-1.64-1.49-4.05-1.4-5.72-2.83a4.07,4.07,0,0,0-2-.82,2.53,2.53,0,0,1-2-1.12c-.48-.81-1.73-.87-2.61-1.3-2-1-3.9-2-5.83-3-.24-.13-.5-.34-.75-.32-1.53.1-2.41-1.08-3.42-1.85s-2.68-.94-3.08-2.55c0-.11-.63-.08-1-.09a4,4,0,0,1-3.34-1.21,3.9,3.9,0,0,0-2-.93c-.71-.17-1.31-.3-1.57-1.09a.88.88,0,0,0-.61-.49c-1.4-.17-2.29-1.42-3.71-1.65a2.23,2.23,0,0,1-2-1.4c0-.12-.18-.31-.22-.3-1.67.5-2.68-1.21-4.18-1.25-.29,0-.58,0-.65-.36-.19-.9-1-.73-1.6-1-.93-.52-2-.45-2.93-1.4-.69-.73-2.16-.86-3.18-1.56-1.23-.85-2.31-2.1-4-2-1-1.84-3.12-1.27-4.58-2.17-1-.64-2.1-1.31-3.15-1.93s-2.41-.92-3.48-1.77c-.53-.43-1.46-1.5-2.64-.81-.21.13-.48-.22-.49-.53,0-.54-.21-.53-.6-.3a.77.77,0,0,1-1.1-.14c-.78-1-1.94-1.18-3-1.63-.73-.31-1.84-.18-2-1.39-.06-.4-.39-.2-.63-.1a.68.68,0,0,1-.76-.1,9.22,9.22,0,0,0-4.7-2.78,3.28,3.28,0,0,1-1.64-1.16,2.6,2.6,0,0,0-2.49-1c-.19,0-.49,0-.57-.09-1.21-1.74-3.52-1.56-4.92-2.77a6.63,6.63,0,0,0-4.25-2c-.45-1.21-2.2-.62-2.61-1.88-2.28-.68-4.36-2-6.79-2.23-.13,0-.37-.05-.37-.11-.24-1.5-1.79-1.14-2.59-1.86s-2.19-.7-3.12-1.35a12.16,12.16,0,0,0-4.24-1.63c-1.84-.43-3.13-1.6-4.72-2.31-.61-.27-1.21,0-1.86-.43-1.3-.86-3-1-4.15-2.23a1.53,1.53,0,0,0-1.12-.44,6.72,6.72,0,0,1-4.13-1.5c-.5-.41-1.26-.06-1.9-.57-.26-.21-1-.15-1.3-.69-.17-.27-.47-.58-.84-.52-1.41.26-2.23-.54-3.12-1.45a2.46,2.46,0,0,0-2.45-.77,2,2,0,0,1-2-.68c-1.11-1-2.16-2.2-3.87-2.2a1,1,0,0,1-.67-.42,3.19,3.19,0,0,0-2.69-1.19,6.34,6.34,0,0,1-3.25-1.71,6.24,6.24,0,0,0-3.83-1.64c-.18,0-.33-.2-.5-.3a40.55,40.55,0,0,0-5.86-2.72,9.53,9.53,0,0,1-2.75-1.76c-.73-.65-1.11-.23-2.35-.9a7.52,7.52,0,0,0-3.2-1.11,9.08,9.08,0,0,0-5.26-3.24c-.65-.18-.49-1-1.23-1.26-2.51-.83-4.9-2-7.51-2.56-.24,0-.41-.12-.39-.27,0-.5-.21-.63-.63-.82-2.33-1-4.62-2.14-6.93-3.21a3.22,3.22,0,0,0-1-.38c-.7-.07-1.51.39-1.75-.87-.09-.48-1.34.14-1.67-.72-1.88.24-3.14-1.12-4.54-1.94-1.17-.69-2.54-.82-3.63-1.63-.32-.24-.92-.17-1-.64-.19-1.3-1.11-.93-1.89-.92l-1.17-1.61c.13-.85,0-1.77.19-2.55a6.39,6.39,0,0,0,0-4.44,1.68,1.68,0,0,1,0-1.77c.79-.89,0-1.28-.41-1.83a16.68,16.68,0,0,1,5.48.05,3.92,3.92,0,0,0,1.44,0,37.56,37.56,0,0,1,5.92-.29,26.16,26.16,0,0,0,6.83-.82,2.74,2.74,0,0,0,1.75-1.23c.63-1,2-1.43,2-2.81a8.61,8.61,0,0,0,3.12-5.92c.41-2.83,1.45-5.56,1.38-8.47a43,43,0,0,1-.13-6.17c.31-2.56-.71-4.91-.71-7.36,0-1.2-.83-2.06-.81-3.13a2.78,2.78,0,0,0-1.08-2.68c-.3-.2-.24-.56-.3-.89-.3-1.67-1.48-2.91-2.27-4.35a.74.74,0,0,0-.56-.22c-.65,0-1.21.1-.8-.94.09-.22-1-1.34-1.52-.85-1.24,1.16-1.78.06-2.41-.54a5.73,5.73,0,0,0-5.52-1.68c-.8.18-1.64.84-2.47-.12-.33-.38-.92-.15-1.35.09s-.57.44-.93.22c-.9-.56-1.88-.26-2.82-.23a5.33,5.33,0,0,1-2.82-.5c.42-.49,1.19-.77,1-1.63-.35-1.38-.37-3-1.12-4.09-.58-.86-.25-2.19-1.44-2.65,0-2.1-1.35-3.75-2-5.62A9.92,9.92,0,0,1,156,121.58ZM262.26,214.9a43.25,43.25,0,0,0,.1,5.6.94.94,0,0,0,.53.93,2.91,2.91,0,0,1,1.34,2.39,1.49,1.49,0,0,0,1.81,1.35,32.73,32.73,0,0,1,7.47-.22c2.94.33,5.85-.21,8.81,0,4,.28,8.08.06,12.12.05,3,0,6.06,0,9.09,0a53.58,53.58,0,0,0,6.29,0c2.88-.33,5.76-.09,8.63-.16a46.25,46.25,0,0,1,6.39,0,6.59,6.59,0,0,0,1.56.27,41.47,41.47,0,0,1,7.42-.27c3,.23,6,0,9-.06,3.54-.08,7.1.11,10.66.11s7-.15,10.49.06a1.65,1.65,0,0,0,1.59-.73,1,1,0,0,1,1.56-.26.8.8,0,0,0,.74.25c1.55-.41,2.91.18,4.27.8a3.15,3.15,0,0,0,1.37.41,1.22,1.22,0,0,0,1.34-1.22c0-.46.13-1.26-.84-1.55-.82-.24.62-1.27-.27-1.85a2,2,0,0,1-.67-2c.09-.66-.57-1.52.42-2a3.13,3.13,0,0,1-.24-2.27c.35-.89-.72-1.59-.28-2.24.89-1.3.25-2.54.18-3.82a4,4,0,0,0-.32-1.38c-.17-.4-.36-.77.22-1s.64-.61.17-1c-.68-.53-.22-1.37-.09-1.69a4.25,4.25,0,0,0,.13-2.61.74.74,0,0,1,.13-.56c.53-.61.15-1.29.21-1.93.1-1-.85-1.72-.72-2.72s.29-2.16.39-3.24a12.77,12.77,0,0,0,0-1.64,32.24,32.24,0,0,1,.28-7c-.82-.65.56-1,.19-1.66-.85-1.45-.6-3-.46-4.61a9,9,0,0,0-.15-2.4,2.43,2.43,0,0,1,0-1.38c.5-1.41.45-1.53-.06-2.66-.06-.12-.16-.28-.12-.38.45-1.37-.05-2.84.34-4.18s-.55-2.47.23-3.63c-1.15-.91-.36-1.78.07-2.63.14-.28.19-.57,0-.76-1.15-1.11.51-2.7-.65-3.79.73-.72.05-1.57.21-2.32.29-1.46-.37-3,.32-4.38.2-.4,0-.62-.07-.93a7.1,7.1,0,0,1-.24-3.22c.34-2.66-.09-5.34.12-8,.1-1.24-.49-2.58.47-3.71-.51-.53-.23-1-.07-1.62s-.53-1.11-.5-1.86c.07-2,0-4-.09-6.07a2,2,0,0,1,.29-1.13c.51-.85.69-1.56-.23-2.22-.25-.18-.39-.53-.22-.72.89-1,.26-2.1.19-3.14,0-.61.5-1,.31-1.68a13.79,13.79,0,0,1-.24-4.39,8.83,8.83,0,0,0,.13-2.58,14.14,14.14,0,0,0-.38-2.26c-.06-.17-.32-.37-.1-.51,1.15-.71.56-1.5.21-2.34-.12-.28-.11-.85.07-1,1-.75-.07-1.8.28-2.32a2.55,2.55,0,0,0,.28-2.29,16.86,16.86,0,0,1-.41-6c.16-2.33-.07-4.7,0-7.05,0-.59-.07-1.52-.44-1.74-1.34-.81-1.08-2-1-3.15a1.49,1.49,0,0,0-1.77-1.36c-2.25.79-4.55-.67-6.78.23-.59.24-1.18-.93-1.82-.06-1.25-.46-2.51.38-3.7,0a8.82,8.82,0,0,0-3.11,0c-2,.1-4-.4-6,0-.86.15-1.82-.92-2.68.19-.19.25-.51,0-.73-.17s-.6-.53-.92-.3c-1.66,1.2-3.47.12-5.18.23a25.26,25.26,0,0,1-5.55-.35c-.27,0-.57-.2-.81-.14a8.63,8.63,0,0,1-5.5-.05c-.43-.17-.78.17-1.15.28a13.56,13.56,0,0,1-1.51.26,12.65,12.65,0,0,1-3.93,0c-.95-.14-1.63.38-2.48.27s-2.11.13-3-.48c-1.13-.81-1.78.74-2.8.42-.32-.1-.69,0-.82-.4s-.34-.54-.62-.12a.71.71,0,0,1-.85.38c-1.05-.32-2.1.08-3.18,0a22.19,22.19,0,0,0-4.58.11c-.82.09-1.51-.82-2.15-.39-1.65,1.11-3.53-.75-5.1.53-1.1-1-2.28-.13-3.41-.13-.71,0-1.5-.6-1.94-.36-1.58.87-3.25-.88-4.74.29-1.55-.86-3.23-.57-4.8-.27-2,.38-4.06-.8-6,.31-.15.08-.41,0-.61-.06-1-.23-2.12.57-3-.32-.91.69-1.35.32-1.78-.62-.22-.49-1.51-.3-1.84.25a4.91,4.91,0,0,1-3.77,2.69c-.83.08-.88.48-.83,1.08a8.45,8.45,0,0,1,.2,2.43c-.68,3-.36,6-.31,9,0,3.24-.15,6.48.09,9.73.21,2.8-.1,5.63-.07,8.45.08,6.7,0,13.4,0,20.1,0,1,.31,2,.22,3a27.68,27.68,0,0,0-.14,7.49,1.63,1.63,0,0,1,0,.62,17,17,0,0,0-.2,4.67c.32,5.12,0,10.24.11,15.35.15,6.2-.16,12.41.13,18.61,0,1,0,2,0,3a23.15,23.15,0,0,1-.2,5.25c-.45,1.76,1,3.44-.07,5.1.16,4.3.26,8.6.23,12.9C262.23,209.51,261.87,212.36,262.26,214.9Z" style="fill:#163847;"/><path d="M156,121.58a9.92,9.92,0,0,0,.88,3.93c.67,1.87,2,3.52,2,5.62,1.19.45.86,1.79,1.44,2.65.75,1.11.77,2.7,1.12,4.09.22.86-.55,1.14-1,1.63a5.33,5.33,0,0,0,2.82.5c.94,0,1.92-.33,2.82.23.36.23.63-.05.93-.22s1-.47,1.35-.09c.83,1,1.66.29,2.47.12a5.73,5.73,0,0,1,5.52,1.68c.63.6,1.16,1.7,2.41.54.52-.49,1.6.63,1.52.85-.41,1,.15.94.8.94a.74.74,0,0,1,.56.22c.79,1.44,2,2.68,2.27,4.35.06.33,0,.69.3.89a2.78,2.78,0,0,1,1.08,2.68c0,1.07.8,1.93.81,3.13,0,2.45,1,4.8.71,7.36a43,43,0,0,0,.13,6.17c.08,2.91-1,5.64-1.38,8.47a8.61,8.61,0,0,1-3.12,5.92c-.08,1.39-1.41,1.85-2,2.81a2.74,2.74,0,0,1-1.75,1.23,26.16,26.16,0,0,1-6.83.82,37.56,37.56,0,0,0-5.92.29,3.92,3.92,0,0,1-1.44,0,16.69,16.69,0,0,0-5.48-.05l-7.74-.24a1.75,1.75,0,0,0-1.12.42c-2.85,0-5.7-.13-8.56-.15-1.64,0-3.27.51-4.9.13a9.1,9.1,0,0,0-2.64-.11c-2.66.15-5.34.13-8,.08s-5.15-.15-7.72,0a40.05,40.05,0,0,0-4.78-.32c-3.42.16-6.83,0-10.25.11s-6.77.07-10.16-.18a34.11,34.11,0,0,0-6.12-.38c-.17-.11-.35-.32-.51-.31-2.12.1-2.71-1.91-4-3a8.52,8.52,0,0,1-1-1.5,12.57,12.57,0,0,1-2.38-4c-.15-.59.69-1.26-.19-1.71-.27-2.43-1.15-4.73-1.31-7.21-.11-1.77.12-3.51.08-5.27,0-1.49-.15-3-.07-4.49a31.33,31.33,0,0,1,1-6.06c.32-1.25.23-2.7,1-3.78,1.09-1.58,1.44-3.49,2.53-5.06.48-.69.77-1.48,1.83-1.27.35.07.36-.05.36-.42a1.71,1.71,0,0,1,2.52-1.46c.5.23.73.18,1-.16s.59-.73.89-1.1c1.11-.35,2.21-.72,3.33-1a3.45,3.45,0,0,1,2.53.55c1,.51,1.5-1.21,2.45-.27a1.49,1.49,0,0,0,1.18.14,22.42,22.42,0,0,1,7.68-.17,8.19,8.19,0,0,0,3.55-.2,5.54,5.54,0,0,1,1.42-.09c1.78-.13,3.54.94,5.32,0,0,0,.13,0,.2,0,3.38,0,6.77,0,10.15.05,1.32,0,2.63-.31,3.91-.15,2.25.29,4.49-.07,6.73.11a11.27,11.27,0,0,0,2.85.23c2.45-.45,4.92,0,7.34-.29,1.23-.17,2.24.66,3.4.35a8.12,8.12,0,0,1,5.48.1,2.15,2.15,0,0,0,1.53-.12,1.57,1.57,0,0,0-.36-1c-.66-1.12-2.43-.83-2.84-1.73a7.44,7.44,0,0,0-2-3c-.51-.41-1.26-.41-1.58-1.18-.82-1.95-2.55-2-4.32-1.82-.45.06-.92.08-1.34.14-2,.32-4-.12-6.05-.05-2.73.09-5.46.11-8.18.09-3,0-6-.17-9.07-.16s-6,0-9,.26c-1.22.09-2.4-.46-3.58-.1a20.65,20.65,0,0,1-7.22.65c-3.19-.16-6.39-.23-9.56-.22a46,46,0,0,0-5,.18,18.12,18.12,0,0,1-4.87-.14c-.9-.14-2,.57-2.78.27a3.27,3.27,0,0,0-3.18.52c-1,.66-2.26.56-3.24,1.56a11.94,11.94,0,0,1-4.32,2.83,4,4,0,0,0-1.52,1c-1.12,1.23-2.16,2.53-3.24,3.8-.67,1.1-2.7.9-2.63,2.72-.19,0-.41-.16-.57-.11a1.36,1.36,0,0,0-.93.65,16,16,0,0,0-1.31,2.42c-.21.67-1.44,1.09-.6,2.05a4,4,0,0,0-1.41,1.84,109.9,109.9,0,0,0-11.77-.38c-3.31,0-6.63.1-9.95-.1-1.13-2.32-2.44-4.58-2.68-7.23a1.64,1.64,0,0,0-.26-.55,20.48,20.48,0,0,1-1.91-5.17,92.76,92.76,0,0,0-3.39-10.51,42.87,42.87,0,0,0-2.44-6.45c-1.1-2-1.47-4.37-2.16-6.59a8.33,8.33,0,0,1-.41-1.6c-.12-1.21-1.5-2.06-1.3-3.13.23-1.24-.42-2.18-.46-3.18-.06-1.59-1.17-3-.61-4.65.13-.38-.18-.92-.3-1.38a3.53,3.53,0,0,1,.4-3.34c1-1.21,1-2.73,1.43-4.11a2.28,2.28,0,0,1,1.32-1.66,3.35,3.35,0,0,0,1.3-.95c1.22-1.45,3.15-1.62,4.75-2.36,1-.46,2.23.53,3.42.32,1.41-.25,2.53.44,3.68,1.06.48.26.72.77,1.23,1.12-.47-2.08.86-3.58,1.57-5.2.45-1,1.62-1.8,2.53-2.62a18.19,18.19,0,0,1,5.52-3.67c.91-.35,1.89,0,2.85-.25.71-.17,1.5.15,2.21-.28a.69.69,0,0,1,.59,0c2,1.14,4.52,1.24,5.81,3.56.63,1.12.85,1,1.71-.08a19.15,19.15,0,0,0,2.64-3.62,3.08,3.08,0,0,1,1.71-1.36c1.79-.68,3.49-1.62,5.29-2.3A5.8,5.8,0,0,1,73,74.74c.75.19,1.51.16,2.22.33a8.66,8.66,0,0,1,4.51,3,1.18,1.18,0,0,0,1.57.43,1,1,0,0,0,.53-1A2.81,2.81,0,0,1,83,75.2c.37-.38.91-.64,1.08-1.22a2.41,2.41,0,0,1,2-1.61c2-.31,3.84-1.26,5.91-1.35a7.45,7.45,0,0,1,5.89,2.19c2.32,0,2.44,3,4.52,3.37.37.93,1.09,1.72,1,2.92,1.3-.19,1.95-1.35,3-1.9,1.76-.95,3.47-1.91,5.57-1.77a7.7,7.7,0,0,0,2.67-.14,2.88,2.88,0,0,1,2.84.7c1.3,1,3,1.67,3.41,3.59-.18.1-.21.16-.07.15s0-.11.05-.17c.59.07,1.2.87,1.74-.22.21-.42.92-.5,1.22-1a2.44,2.44,0,0,1,2.5-1.14c2.25.34,4.71-.05,6.63,1.64.57.5,1.38.32,2,.8.83.6.9,1.62,1.71,2.21,1.4,1,2,2.77,3.12,4a1.15,1.15,0,0,1,.33.51c.41,2.74,2.12,4.87,3.37,7.22a1.67,1.67,0,0,1,.26,1c-.28,1.37.92,2.15,1.5,3a8.19,8.19,0,0,1,1.33,2.4,19.86,19.86,0,0,0,1.53,2.79,14.6,14.6,0,0,1,1.53,4c.18,1.14,1.42,2,1.61,3,.43,2.35,1.77,4.31,2.34,6.58A9.3,9.3,0,0,0,156,121.58Zm22.06,37a8,8,0,0,0-.46-3.14c-.58-1.19.33-3.09-1.61-3.65-.09,0-.18-.42-.11-.57.19-.4.22-.49-.23-.86-.89-.73-1.64-1.28-2.83-.74a2.91,2.91,0,0,1-1.23,0,26.36,26.36,0,0,0-5.25-.14c-.9.14-2.39.62-3.09-.86-.08-.18-.24-.13-.32.18-.32,1.15-1.32.69-2.05.7a9.6,9.6,0,0,1-2.71-.26c-1.71-.51-2.28.43-2.91,1.52a15.79,15.79,0,0,1-2.5,3.29,79.91,79.91,0,0,0-6.08,7.5c-1.29,1.66-2.6,3.32-3.74,5.12-.6,1-1.64,1.72-2.12,2.87a1.52,1.52,0,0,1-.55.61c-1.37.94-2.08,2.46-3.15,3.66s-2.09,2.64-3.17,3.94c-.3.36-.87.66-.69,1.18s.84.61,1.4.6h1.23a47.4,47.4,0,0,0,6.18,0c1.92-.23,3.91,1.19,5.75-.27,0,0,.23.13.37.16,2.39.48,4.93-.63,7.25.67.26.15.5-.13.69-.32a.94.94,0,0,1,1-.24c2.39,1.15,4.87-1,7.24.23,2.33-.52,4.6,0,6.86.42a3.63,3.63,0,0,0,2.22-.28c1-.47,1.68-1.58,3-1.39.07,0,.23-.17.26-.29a46.84,46.84,0,0,0,1-5.65c0-.59,1.06-1.23.1-1.86,1-.59-.06-1.46.2-2,.61-1.15-.13-2.46.62-3.53-.89-1.87,1-4.08-.7-5.87C177.76,159.2,177.92,158.86,178.08,158.56ZM92.85,180.3c1.23-.11,2.33-.48,3.48-.65.87-.12.11-1.38.7-2a9.83,9.83,0,0,0,.83-1.42c1.57-2.3,3.4-4.43,5-6.69.7-1,1.25-2.07,2-3,1.18-1.59,2.67-2.93,3.7-4.61s2.39-3.12,3.53-4.73c.55-.78.77-1.88,1.6-2.34,1.85-1,1.86-3.51,3.71-4.5.17-.09.22-.58-.11-.66a11.79,11.79,0,0,0-3.73-.51,14.72,14.72,0,0,1-3.37.24c-3-.46-5.92.7-8.84-.15-2.4.64-4.86,0-7.28.28a4.87,4.87,0,0,1-2.44,0,2,2,0,0,0-2.71,1,8,8,0,0,0-1.23,2.31c-.4,1.69-1.1,3.34-1,5.09a3.36,3.36,0,0,1-.73,2.81.92.92,0,0,0,0,1.15c.89.87.13,1.83.24,2.74,0,.37-.15.8,0,1.2a8.2,8.2,0,0,1,.19,3.83c-.07.57.21.67.43.94.35.43-.53.35-.31.91.44,1.1.57,2.31.93,3.45.48,1.49-.14,3.74,2.52,3.83.16,0,.38.22.46.39C90.92,180.33,92.07,179.95,92.85,180.3Zm48.51-30.68A2.76,2.76,0,0,0,141,149a.31.31,0,0,0-.5.12c-.22.45-.6.48-1,.49-2.49.07-5-.11-7.47-.1-1.95,0-3.9.18-5.85.11a2.33,2.33,0,0,0-2.12,1.42,9.45,9.45,0,0,1-1.88,2.64,4.86,4.86,0,0,0-1.9,3.11.28.28,0,0,1-.11.17c-1.63,1.22-2.35,3.22-3.77,4.56a16.85,16.85,0,0,0-3,3.69c-.8,1.38-2,2.3-2.84,3.67a46.49,46.49,0,0,1-5.79,8.14c-.64.7-1.13,1.48-.66,2.38s1.35.35,2.06.44,1.65-.69,2.38-.12,1.08.29,1.64,0c.34-.19.87-.46,1.12-.33,1.28.66,2.56,0,3.8.13.9.09,1.9-.66,2.81.33.37.41.83-.17.85-.74a2.16,2.16,0,0,1,1.35-2.11,1.71,1.71,0,0,0,.8-.89,14.63,14.63,0,0,1,2.4-3.45c1.76-2.32,3.72-4.47,5.41-6.85,1.8-2.54,3.71-5,5.58-7.51.49-.65,1.32-1.05,1.72-1.67,1-1.58,2.31-2.93,3.42-4.42A21.78,21.78,0,0,1,141.36,149.62Zm-37.94-45.55a5.3,5.3,0,0,0-.57-.07c-2.11,0-2.61.62-1.8,2.53.73,1.74,1.18,3.56,2.48,5.12,1.07,1.28.83,1.56,2.2.72a16.47,16.47,0,0,1,1.91-.71c.75-.35,1.07-.77.84-1.58a8.09,8.09,0,0,0-1.12-2.82c-.46-.6.33-1.37-.45-1.86C105.83,104.71,105,103.55,103.41,104.07Zm33.77,16c-.14-.6-.75-.88-.73-1.48a5.63,5.63,0,0,0-1.25-3.18c-1.31-2.06-2.86-2.78-5.18-2.25-1.19.27-1.62.94-1.2,2.12.29.82.82,1.56,1.13,2.38a4,4,0,0,0,2.27,2.73,1.28,1.28,0,0,1,.84,1.29,1,1,0,0,0,.72,1.08C134.89,121.8,135.6,120.39,137.18,120.07ZM61,99.57a6,6,0,0,1-1.31.22c-.93-.06-1.32.62-1.76,1.21s.33.91.53,1.36a2,2,0,0,1,.28.77c0,1.14,1.08,1.57,1.48,2.44.61,1.31,1.63.93,2.66.67.47-.12.59.5,1,.61,1.39.38,2.2-.28,2-1.7a2.33,2.33,0,0,0-.42-1.14,6.35,6.35,0,0,1-1.15-2.31C63.76,99.79,62.21,100,61,99.57Zm21,7.16a9.9,9.9,0,0,0,1.84.1c1-.13,1.38-.8.93-1.69a11.52,11.52,0,0,1-1.2-2.79c-.17-.78-.85-1.05-1.46-1.24a9.08,9.08,0,0,0-2.63-.32c-1.12,0-1.71.85-2.42,1.37s.32,1.13.55,1.72c.07.19,0,.41.11.6.6,1.88,1.29,2.39,3.27,2.39A7.06,7.06,0,0,0,82,106.73ZM60.31,129.59c1.4-.18,2.72-.72,4.16-.84.79-.06,1-1.23.57-1.65-1-1-1-3.13-3.08-3-1.39-1.29-2.62-.14-3.73.43-1.28.66-1.3,1.51-.5,2.71a13.28,13.28,0,0,1,.9,1.38A1.55,1.55,0,0,0,60.31,129.59Zm59.06-38.11c-.58-.08-1.61-.25-1.66.88a5.2,5.2,0,0,0,1.56,4.29c1,.93,2.39.85,3.56,1.36a1.75,1.75,0,0,0,1.83-.61c.54-.73,0-1.12-.34-1.61s-.09-.8-.11-1.2a2.35,2.35,0,0,0-1.08-1.9A5.86,5.86,0,0,0,119.37,91.48ZM50.19,137.35A4.27,4.27,0,0,1,49,134.83a3.69,3.69,0,0,0-4-3,3.3,3.3,0,0,0-2.59,1c-.64.72.25,1.26.17,1.91a4.63,4.63,0,0,0,0,.82,1.33,1.33,0,0,0,.87,1.29c1.07.19,1.93,1.87,3.25.53.16-.16.38,0,.54.11C48.17,138.38,48.9,137.52,50.19,137.35Zm-4.57-29.53-1,.12a1.86,1.86,0,0,0-1.52,3c.18.28.59.49.65.77.35,1.79,1.71,1.7,3,1.66.33,0,.64-.08,1-.06,2.49.11,2.72-.45,1.9-2.71S47.3,108.12,45.61,107.82Zm47.65,10.32a6.87,6.87,0,0,0-1.1.08,1.89,1.89,0,0,0-1.59,1.6,4.24,4.24,0,0,0,.67,2.11c.25.48.88.24,1.32.36s1.18.33,1.77.47a4.29,4.29,0,0,0,2.8-.29c.61-.28.89-.6.6-1.43C97,119,95.94,118.14,93.26,118.15Z" style="fill:#54b7ca;"/><path d="M149.17,317.47c3.3.05,5.17,2.35,7,4.58a2.18,2.18,0,0,1-.12,2.27c-.63.72-.3,1.42-.5,2.1a12.06,12.06,0,0,0-.44,4.57c.14,2-.3,4.14.08,6.18s-.41,4-.1,6.14a51.57,51.57,0,0,1,0,9.17,40.8,40.8,0,0,1,0,4.6,5.09,5.09,0,0,0,.29,2.55,6,6,0,0,0-.36,3.8,9.19,9.19,0,0,1-.12,2.83c-.13,2.16,1.12,4.37-.2,6.48.84,2.88,0,5.85.42,8.76.15,1,.47,2.19-.45,3.11a.47.47,0,0,0-.07.57c1,2.11.14,4.41.7,6.59.34,1.32-.86,3-2.57,3.36s-3.45,1.31-5.29,1.52a8.16,8.16,0,0,1-2.4,0c-1-.16-2.05.38-3.12.33a2.82,2.82,0,0,0-2.67.54,2,2,0,0,1-1.55.39c-1.92,0-3.85.07-5.75-.09a32.76,32.76,0,0,0-8.54.46c-1.67.3-3.27-.1-4.89,0s-3.35.31-5,.38c-2.72.12-5.45.55-8.18,0a1.82,1.82,0,0,0-.62,0c-2.37.35-4.71-.16-7-.4a54.22,54.22,0,0,0-6.13-.39c-2.32,0-4.65.34-7,.19a70.43,70.43,0,0,1-8.6-.7,10,10,0,0,0-4.33-.4c-1.07.13-2.21.32-3.1-.63-.2-.22-.66-.22-.49-.73.39-1.19-.52-1.73-1.25-2.29a2.46,2.46,0,0,1-1-2.29c.16-3.87-.32-7.75.31-11.61a15.47,15.47,0,0,0-.15-2.62c-.05-3.58-.1-7.16-.09-10.73,0-.79-.29-1.64.32-2.38.16-.2-.14-.48-.32-.67-.26-3.95,0-7.9,0-11.85,0-2.38,0-4.76,0-7.13a42.76,42.76,0,0,1,.22-7.75,6.23,6.23,0,0,0,0-1.84A14.42,14.42,0,0,1,66,330c.11-.59.32-1.37-.35-1.89,0-.47.22-1,0-1.39-.73-1.5.06-2.45,1.12-3.23s2.31-1.64,3.85-1c0,.47-.08,1,.59,1.14a4.79,4.79,0,0,1,1.9.76c2.2,1.94,5.07,1.89,7.66,2.54a63.45,63.45,0,0,0,6.65,1.33c2.21.31,4.41.71,6.6,1.12,3.22.6,6.54.66,9.81.94.42,1.4,1.68,1.9,2.79,2.54.66.38,1.14.26,1.28-.64a3.43,3.43,0,0,1,.93-2.22,8.72,8.72,0,0,0,3.21-.45c1.18-.42,2.23.58,3.33.22,1.52-.48,3.05,0,4.59-.2,2.86-.31,5.75-.25,8.56-1,.4-.11.82-.4,1.18-.33,1.84.35,3.44-.7,5.16-1a13.64,13.64,0,0,0,4.47-1.08c.55-.29.79-1.16,1.39-1,1.43.37,2.18-.6,3-1.32.48-.41.93-.92,1.55-1,1.8-.12,2.27-1.49,2.92-2.79C148.71,319.24,148.56,318.23,149.17,317.47Zm-43.61,63.14a56.92,56.92,0,0,1,2.38-6c.71-1.84,2.09-3.38,2.5-5.47a7.28,7.28,0,0,0-3.11.37c-.57.21-1.62.26-1.56-.37.1-1.1-.65-2-.25-3.17.92-2.59.86-5.41,1.87-8a5.91,5.91,0,0,0,.17-1.42,1.84,1.84,0,0,0-.62-1.67c-.86-.5-1-1.41-1.44-2s-1.33-1.32-1.92-2.05-1-1.71-2.24-1c-.16.09-.24.09-.33-.06-.91-1.35-2.47.06-3.53-.83-.17-.15-.73,0-1,.13a10.72,10.72,0,0,0-3.31,3c-.17.27-.35.84-.23.94.66.56.16.92-.15,1.31a2.56,2.56,0,0,0-.63,2.27c.8,2.48,1.1,5.07,2.47,7.45,1.79,3.12,2.95,6.57,5.11,9.53.92,1.26,1.55,2.74,2.84,3.72a2.2,2.2,0,0,0,1.1,2,1.38,1.38,0,0,1,1,1.51c0,.29.16.57.46.5S105.51,380.93,105.57,380.61Zm3.25-.51c1.1-.63,1.37-1.87,2.2-2.64a72.2,72.2,0,0,0,5-5.26,12.76,12.76,0,0,1,2.36-2.61,21.84,21.84,0,0,0,4.25-3.8,32.12,32.12,0,0,0,3.66-5,29.08,29.08,0,0,0,2.23-4.81,7.81,7.81,0,0,0,0-4.76,6.62,6.62,0,0,0-1-2.61c-1.44-1.79-4.91-2.57-7.11-1.69-1.27.51-2.7.68-3.71,1.74-2.32,0-3.32,2-4.24,3.42-2.22,3.5-2.72,7.67-3.58,11.65-.17.81-.76,1.92-.22,2.54.74.83,1.74-.3,2.66-.25h.21c2.27-.29,2.73.17,2.32,2.42a4.49,4.49,0,0,1-.4,1.17c-.51,1-1.05,2.07-1.6,3.09A38.41,38.41,0,0,0,108.82,380.1Z" style="fill:#e86266;"/><path d="M125,465.17c-1.67.14-3.36.17-5,.46-1.11.19-1.49-.4-1.5-1.16a3,3,0,0,0-1.36-2.71,2.66,2.66,0,0,1-.7-2.66c.56-3.27.19-6.58.26-9.87.08-3.73-.59-7.48.31-11.21a17,17,0,0,0,.16-3.3c.16,0,.24-.16.15-.24s-.21,0-.23.16c-2.41-.08-4.81-.64-7.24-.19-1.39.26-1.66.42-1.76,1.73-.07,1,0,2.06,0,3.09a35,35,0,0,1-.29,3.67c-.47,4.81-1.51,9.57-1.62,14.41,0,1.62-.14,3.24-.1,4.87,0,1-.36,1.41-1.38,1.16a2,2,0,0,0-2.34.83,1.49,1.49,0,0,1-1.75.7,7.88,7.88,0,0,0-2.23.11,3.48,3.48,0,0,0-2.15-.28,36.14,36.14,0,0,1-4.56.42c-1.71.23-3.49.13-5.22.37-1.75.48-3.48-.34-5.24,0-.42.08-.91-.26-1.37-.39-.91-.26-1.17-.78-.78-1.68s.71-1.66-.44-2.24c-.37-.19-.33-.72-.41-1.13a34.55,34.55,0,0,1-.47-5.2c-.2-4.93-.46-9.87-.83-14.79-.15-2-.69-3.87-.68-5.84s0-4,0-6q0-7.4-.06-14.81a66.24,66.24,0,0,0,10.31,1.21,17.62,17.62,0,0,0,5.49-.05,8.14,8.14,0,0,1,2.6,0,11.1,11.1,0,0,0,4.63-.14c1-.32,1.78.51,2.74.54.28,0,.65,1,.76,1.53a7,7,0,0,0,4.17,5c2.93,1.4,6,2.13,8.76-.26,1.37-1.18,2.78-2.47,3.2-4.39.2-.92.76-1.74,1.58-1.53,1.69.44,3.28-.07,4.9-.1s3.17,0,4.73-.15c2.76-.22,5.52-.5,8.28-.75,1.55-.14,3.28.09,4.54-1.24.65,2,.24,4.07.3,6.11.12,4.32.18,8.63-.11,13a57.71,57.71,0,0,0-.47,7.74c.21,3-.21,6.11.51,9.14a9.35,9.35,0,0,1-.12,4.89,5.16,5.16,0,0,0-.29,2.59c.31,1.56-.31,3.09-.2,4.65.07,1-.46,1.42-1.39,1.3s-1.8.06-2.12,1.13c-.22.76-1.42.26-1.47,1.19a2.92,2.92,0,0,0-1-.22c-2.38.36-4.77-.58-7.2.31C128,465.37,126.43,465.1,125,465.17Z" style="fill:#54b7ca;"/><path d="M155.74,244.94c-1,4.25-2.11,8.45-3.47,12.59a17,17,0,0,1-3,5.78,18.2,18.2,0,0,0-3.32,6.16c-.41,1.17-1.53,1.66-2.47,2.27a28.78,28.78,0,0,1-4,2.19,32.52,32.52,0,0,1-6.26,1.69,56.14,56.14,0,0,1-8.84,1.67,1.11,1.11,0,0,0-1.05,1.08c-.12,1-.3,1.93-.39,2.9-.17,1.84-.4,3.69-.4,5.54s.46,3.81.32,5.73c0,.34.13.8.5.81,1.63,0,2.21,1.49,3.19,2.32a18.68,18.68,0,0,0,2.31,1.46,28.42,28.42,0,0,0,2.43,1.83,10.64,10.64,0,0,1-4.35,7.22c-2.22,1.71-4.48,3.18-7.42,3.57-1.71.23-3.43.39-5.14.65,1.08-1.51.42-2.85-.4-4.18a1.08,1.08,0,0,0-1.23-.55c-.48.11-1,.31-1,.89a28.82,28.82,0,0,1-.91,3.16c-1.54.14-2.67-1-4.07-1.3-4.26-1-6.36-4.67-9.25-7.38-.13-1.66-1.38-1.81-2.63-2,1.62-1.36,3.2-2.77,4.87-4.06.75-.58,1.27-1.44,2.24-1.74,1.51-.46,1.85-1.67,1.88-3q.11-5.49.15-11c0-2.23,0-2.08-2.27-2.33-2.07-.23-4.19-.28-6.1-1.49-1-.62-2.29-.72-3.39-1.35A15.74,15.74,0,0,1,90.64,273c-2.72-2.07-5.69-3.8-8.19-6.19A45,45,0,0,1,75,258.12a140.53,140.53,0,0,1-6.91-13.43,31.33,31.33,0,0,0-2.21-4.58,1.16,1.16,0,0,1,1.12.78c1,1.93,2.88,3.08,4.27,4.64A24.74,24.74,0,0,0,76,249.26c2.62,1.75,5.34,3.24,8.59,3.19,1.9,0,3.8-.37,5.7-.53,2.83-.23,5.25-1.65,7.86-2.54.19-.06.48-.15.52-.29.45-1.38,1.84-1.92,2.65-3,2.09-2.73,3.9-5.65,5.87-8.46a6.15,6.15,0,0,0,1.17-2.13,7.38,7.38,0,0,1,1.52-3.18c1.8-2.3,2-5.5,4.23-7.54.93-3,3.29-4.32,5.94-5.39a3.91,3.91,0,0,1,1.89-.31,2.51,2.51,0,0,0,2.34-.79c.9-1.19,1.89-2.36,1.76-4a4.84,4.84,0,0,1,1.42.17,23.18,23.18,0,0,0,9.33,1.94,7.85,7.85,0,0,1,2.94.72c.34,1,1.27,1.19,2,1.66a23.1,23.1,0,0,1,3.48,2.31,16.78,16.78,0,0,1,4.88,9.68c.25,1.47.24,3,.59,4.39a10.46,10.46,0,0,1,.44,3.94c-.27,1.81.68,2.83,1.76,3.87A9.09,9.09,0,0,0,155.74,244.94Zm-31.57,15.31h0c.62,1.06,1.6.17,2.33.44,2.54.93,5.08-.15,7.61.1a.93.93,0,0,0,.83-.53h0a4.52,4.52,0,0,0,3.12-.75,15.45,15.45,0,0,0,4.75-4.09,16.85,16.85,0,0,0,1.41-2.83,10.28,10.28,0,0,0,1.28-5.88.45.45,0,0,1,.15-.33c.93-.69.48-1.61.32-2.4a2.77,2.77,0,0,1-.14-1.59c1-2.39-.61-4.86.26-7.25.23-.63-1.24-1.24,0-1.95.07,0-.14-.62-.27-.93a4.69,4.69,0,0,1-.54-1.72c-.06-1.5-1-2.81-1.62-4a13.3,13.3,0,0,0-5.55-5.27,4.88,4.88,0,0,0-3.13-.74h0c-.62-1.06-1.6-.17-2.33-.44-2.54-.93-5.08.15-7.61-.1a.93.93,0,0,0-.83.53h0a4.52,4.52,0,0,0-3.12.75,15.45,15.45,0,0,0-4.75,4.09,16.85,16.85,0,0,0-1.41,2.83,10.28,10.28,0,0,0-1.28,5.88.45.45,0,0,1-.15.33c-.93.69-.48,1.61-.32,2.4a2.77,2.77,0,0,1,.14,1.59c-1,2.39.61,4.86-.26,7.25-.23.62,1.24,1.24,0,1.95-.07,0,.14.62.27.93a4.69,4.69,0,0,1,.54,1.72c.06,1.5,1,2.81,1.62,4a13.3,13.3,0,0,0,5.55,5.27A4.88,4.88,0,0,0,124.18,260.25Z" style="fill:#f2bc1c;"/><path d="M65.66,328.12c.67.52.46,1.3.35,1.89a14.42,14.42,0,0,0,.07,4.45,6.23,6.23,0,0,1,0,1.84,42.76,42.76,0,0,0-.22,7.75c0,2.37-.06,4.76,0,7.13,0,3.95-.23,7.9,0,11.85-1.78,1.32-3.8,2.27-5.67,3.41-2.19,1.33-4.46,2.56-6.63,3.91-4,2.49-7.76,5.39-11.93,7.65a22.65,22.65,0,0,0-4.51,2.78c-.87.79-2.07.62-3.07,1.06-.36.16-.6-.21-.74-.55-.65-1.59-1.29-3.16-3.11-3.83-.33-.12-.46-.67-.47-1.1-.08-4-.2-8.09,0-12.14.05-1-.37-2.07-.19-3a22.08,22.08,0,0,0,0-5c-.06-1.62.32-3.18.31-4.75,0-1.1,0-2.22,0-3.33a74.64,74.64,0,0,1,.54-9.44c.11-1.35.07-2.7.21-4.06.45-4.53.62-9.1,1.06-13.63.14-1.48,0-2.95.09-4.43a5.54,5.54,0,0,0-1.45-3.74,23,23,0,0,0-4-3.69c-1.07-.82-1-1.35.17-1.95a11.14,11.14,0,0,1,1.33-.57c1.33-.49,2.07-.33,2.81.89a5.48,5.48,0,0,0,1.94,2c.62-.33.5-.88.35-1.29-.69-1.85-1.37-3.68-3-5-.66-.54-1.6-1.36-1.32-2.29s1.54-1,2.47-1.18c1.9-.36,2.71,1.19,3.51,2.36.7,1,1.55,1.9,2.23,2.91a1.63,1.63,0,0,0,1.44.79,3,3,0,0,0-.55-2.66c-.94-1.67-2-3.29-3-4.94-.5-.84-.34-1.39.5-1.8a2.62,2.62,0,0,1,3.61.82,11.15,11.15,0,0,1,2.56,5.21c.1.75.8,1.24.81,2.07,0,.66.55.66,1.07.57s.49-.52.47-.94a16.94,16.94,0,0,0-3-9.4c-1-1.4-.86-1.78.76-2.21a3.78,3.78,0,0,1,4.47,1.88,14.62,14.62,0,0,1,2.44,8.16c-.06,2.65.56,5.29.08,8A2.14,2.14,0,0,0,49,312a7,7,0,0,0,4.34-4.51c.66-1.7.62-3.56,1.3-5.27.4-1,.58-1.23,1.51-.9a3.44,3.44,0,0,1,2.44,4.15,8.27,8.27,0,0,1-2.33,4.66c-.68.63-.71,1.65-1.36,2.42-1.54,1.85-3.65,2.68-5.71,3.53a2.39,2.39,0,0,0-1.58,2.16c-.23,1.67.17,3.44-.8,5a.6.6,0,0,0,0,.4,33.12,33.12,0,0,1,.44,7.09c0,4-.42,7.9-.32,11.87,0,1.84-.16,3.68-.23,5.52a2,2,0,0,0,.21,1.39c.13,0,.34.05.38,0,1.78-2.63,4.31-4.62,6.2-7.14,2.4-3.2,5.23-6,7.76-9.09C62.68,331.54,64.18,329.84,65.66,328.12Z" style="fill:#f2bc1c;"/><path d="M155.43,359.62a5.09,5.09,0,0,1-.29-2.55,40.8,40.8,0,0,0,0-4.6,51.57,51.57,0,0,0,0-9.17c-.31-2.12.48-4.08.1-6.14s.06-4.15-.08-6.18a12.06,12.06,0,0,1,.44-4.57c.79.09.77.88,1.14,1.32,1.17,1.4,2.15,3,3.58,4.11a36.7,36.7,0,0,1,3.5,3.2c1.12,1.08,2.52,2,3.08,3.55-.13-.14-.24-.12-.29.06s0,.12.05.18l.22-.27c2.3,2,4.08,4.44,6.31,7a13.65,13.65,0,0,1-.16-3.48c.16-1.6-.25-3.18,0-4.75a12.84,12.84,0,0,0-.38-5.26c-.37-1.59-.78-3.13-.16-4.76a2.77,2.77,0,0,0,0-2.21,5.59,5.59,0,0,1-.35-2.82c0-.75,0-1.51-.06-2.26s-.36-.94-1.24-.84a7.49,7.49,0,0,1-5.88-2c-2-1.63-2.46-3.71-3-5.92-.33-1.24-.24-2.56-.78-3.76-.23-.51.1-.75.54-.9a3,3,0,0,1,3.53,1.94,12.31,12.31,0,0,0,2,4.33,3.43,3.43,0,0,0,3.33,1.63c.93-.15.92-.42.62-1.39-.72-2.3-2.14-4.34-2.54-6.73-.18-1-.85-1.79-1-2.85-.34-2.22.95-3.94,1.48-5.87.28-1,1-1.94,1.1-3,.07-.76.55-.91,1.13-.88a2.59,2.59,0,0,1,2.19,2.85,29.9,29.9,0,0,0-.66,3.83,16.7,16.7,0,0,0,.63,6.49c.16.44.18.91.9.74s.69-.53.7-1.17c0-2.57-.4-5.14.11-7.7a6.94,6.94,0,0,1,.63-1.46c.48-1.12,1.38-2,2.06-1.88s1.83,1.82,1.72,2.78-.4,2.14-.59,3.22a14.89,14.89,0,0,0,.19,5.91c.93-.46.57-1.07.57-1.62A14.68,14.68,0,0,0,180,304a6.8,6.8,0,0,1,1.31-4.44c.21-.35.43-.71.61-1.08.37-.76.51-1.85,1.73-1.52,1,.26,2,2.66,1.45,3.47a6.64,6.64,0,0,0-.9,4.25c.06.71-.44,1.42.06,2.45a32.69,32.69,0,0,1,2.65-5.72c.75-1.21,1.51-1.29,2.3-.14s1.15,2.51.11,3.79-1.37,2.84-2,4.26a2.49,2.49,0,0,0-.15,2.17c1,1.89.49,4,.94,5.92a43.7,43.7,0,0,1,.84,6.5c.09,1.22,0,2.5.88,3.55-.52,2.39,1,4.55.72,6.95a15.8,15.8,0,0,0,.54,5.18,54.5,54.5,0,0,1,.62,5.66c.2,1.95.32,3.91.53,5.84s-.16,4.11.71,6.07c.18.4,0,.94.06,1.41.11.9-.53,1.94.52,2.66.07,0,.08.27,0,.39-.7,2.39-.16,4.88-.56,7.29,0,.2-.07.57-.13.58-1.41.16-.72,1.56-1.32,2.18s-.36,1.67-.58,2.5c-.49,1.8-.49,1.92-2.33,1.44a1.78,1.78,0,0,0-2.15.74c-.5.72-.9.6-1.6.13a61.27,61.27,0,0,0-5.8-3.08c-2.27-1.17-4.48-2.49-6.81-3.56-1.66-.76-3.09-2-4.72-2.81a29.79,29.79,0,0,1-4.91-2.8,42.42,42.42,0,0,0-3.65-2.55C157.83,360.91,156.62,360.29,155.43,359.62Z" style="fill:#f2bc1c;"/><path d="M126,214.3c.13,1.65-.86,2.83-1.76,4a2.51,2.51,0,0,1-2.34.79,3.91,3.91,0,0,0-1.89.31c-2.66,1.07-5,2.43-5.94,5.39-2.25,2-2.43,5.24-4.23,7.54a7.38,7.38,0,0,0-1.52,3.18,6.15,6.15,0,0,1-1.17,2.13c-2,2.81-3.79,5.72-5.87,8.46-.81,1.07-2.2,1.6-2.65,3,0,.14-.33.23-.52.29-2.61.89-5,2.31-7.86,2.54-1.9.15-3.8.5-5.7.53-3.24.05-6-1.44-8.59-3.19a24.74,24.74,0,0,1-4.73-3.72C69.87,244,68,242.83,67,240.9a1.16,1.16,0,0,0-1.12-.78l-1.8-3.21a2.74,2.74,0,0,0-.11-1.39,28.19,28.19,0,0,1-1.6-4.56,14.33,14.33,0,0,0-.91-2.85,49.83,49.83,0,0,1-3.13-8c-.25-.91-1.27-1.75-.37-2.82-1.19-.23-1.1-1.35-1.29-2.12-.32-1.32-.73-2.59-1.17-3.87-.32-.92-1-1.68-1-2.82,0-.92-.89-1.8-1.14-2.76-.91-3.52-2.2-6.93-3.1-10.47-.27-1.07-.1-2.23-.46-3.05-.66-1.54-.81-3.19-1.42-4.7-.39-1-.08-2.27-.5-2.88-1.12-1.64-1-3.46-1.39-5.2,0-.13,0-.29,0-.39a9,9,0,0,1-1.14-5.25,2.5,2.5,0,0,0-2.3-2.7c0-1.2-1.19-1.32-1.78-2a3.5,3.5,0,0,1,3.05-.54c.26,0,.54.23.77.18.42-.1-.57-.75.26-.79.48,0,.61.56,1,.59a4.37,4.37,0,0,0,1.63.05c1.56-.54,3.37,1.07,4.77-.58a.26.26,0,0,1,.18.08c.61,1,1.53.08,2.24.37.53,1.8.44,3.71,1,5.52a6.62,6.62,0,0,1,.58,3c-.41,2.43,1.94,3.78,2.21,5.93,0,.06.24.15.36.13.76-.07.91.48,1,1,.07.35.11.82.43.87,1.36.2,1.69,1.68,2.79,2.17.38.62.91,1.09.75,2a7.25,7.25,0,0,0,.29,2.63c.73,3.47,1.79,6.86,2.24,10.41a64.56,64.56,0,0,0,1.89,8A52.38,52.38,0,0,0,70.44,216,27.51,27.51,0,0,1,71.8,220a34.11,34.11,0,0,0,3.54,8.72,26.61,26.61,0,0,0,2.06,3.1c.48.65.87,1.69,1.32,1.94,1.91,1.07,3.33,2.83,5.34,3.66a7.21,7.21,0,0,0,3.19.65,20.53,20.53,0,0,0,10.19-3.45c2-1.36,3.92-2.76,4.82-5.09a31.2,31.2,0,0,1,2.82-5.41c1-1.63,1.67-3.63,3.65-4.53a2,2,0,0,0,.71-.73c2.31-3.47,5.73-5.34,9.52-6.7a17.61,17.61,0,0,0,2.28.81C122.86,213.39,124.45,213.87,126,214.3Zm-63.92-9.61c-.39-1.1-.19-2.64-1.62-3.41-.66-.35-1.4-.49-2.07-.87a4.09,4.09,0,0,0-2.9.71A3,3,0,0,0,56,204c0,.05.11.09.15.14,1.14,1.65,2.94,1.81,4.68,2C61.75,206.27,62.22,205.67,62.13,204.69ZM65.58,223c-1.05-.07-1.86.52-1.64,1.53s.15,2,1.25,2.66c.81.51,1.79.27,2.45.9a1.42,1.42,0,0,0,2,0,1.75,1.75,0,0,0,.4-2.09C69.58,224.46,67.64,223.17,65.58,223Z" style="fill:#54b7ca;"/><path d="M43,171.1a2.5,2.5,0,0,1,2.3,2.7A9,9,0,0,0,46.47,179c.06.1,0,.26,0,.39.39,1.74.27,3.55,1.39,5.2.42.61.11,1.91.5,2.88.61,1.52.76,3.16,1.42,4.7.36.83.19,2,.46,3.05.9,3.53,2.18,6.94,3.1,10.47.25,1,1.14,1.84,1.14,2.76,0,1.13.66,1.9,1,2.82.44,1.28.85,2.55,1.17,3.87.19.77.1,1.89,1.29,2.12-.9,1.07.13,1.91.37,2.82a49.83,49.83,0,0,0,3.13,8,14.33,14.33,0,0,1,.91,2.85,28.19,28.19,0,0,0,1.6,4.56,2.74,2.74,0,0,1,.11,1.39c-1.41,1.28-3.12,2.17-4.51,3.52a7.43,7.43,0,0,1-3.15,1.3,10.14,10.14,0,0,1-3.38.66,1.29,1.29,0,0,1,0-1.19c.85-1,1-2.38,1.52-3.57.91-2.13.52-3.4-1.31-4.82s-2.85-1-3.6,1.14-1.14,4.21-2.51,6c-.55-.85-1.57-1-2.33-1.57a17.21,17.21,0,0,1-3.33-4,9.36,9.36,0,0,0,1.37-1.52c.63-1,1.23-2.32,2.13-2.61,1.18-.37.95-1.07,1.13-1.76s-.26-1.19-.37-1.79c-.39-2.13-1.75-2.57-3.32-1.13a15.24,15.24,0,0,0-1.38,1.51,3.1,3.1,0,0,1-1.74,1,13.88,13.88,0,0,1,2-7c-2-1-3.94-1.89-5.78-2.92-2.46-1.39-5-2.7-6.74-5-1.53-2.11-3.27-4.14-3.85-6.8-.14-.87-1-1.51-.83-2.47a4.58,4.58,0,0,0-1-3.39c-.81-3.22-1.58-6.41-1.11-9.83a14.72,14.72,0,0,0,.24-5.15c.64.58,1.36-.77,1.86,0s1.18.54,1.81.7c1.1.28,2.31.1,3.31.86,2.15,1.65,3.59,1.72,5.72.36,1.8-1.15,1.74-2.73-.17-3.73-.67-.35-1.38-.6-2.08-.89a3.82,3.82,0,0,1-.76-.26,11.69,11.69,0,0,0-7.08-2.35c-.5,0-.48-.38-.58-.69.24-.42.74-.55,1-1,1-2.14,2.93-3.27,4.61-4.73,3.55-3.08,7.69-2.87,11.89-2.36A1.86,1.86,0,0,0,43,171.1Z" style="fill:#f2bc1c;"/><path d="M126,214.3c-1.6-.43-3.19-.91-4.8-1.28a17.71,17.71,0,0,1-2.28-.81c-.08-.25.1-.37.25-.52-1.08-.89-.48-2.1-.44-3.12,0-1.26-.39-2.47-.28-3.68.23-2.56.8-5.1,0-7.66a.93.93,0,0,1,0-.41c.39-2.35.1-4.74.39-7.09.08-.62-.34-.84-.48-1.26,2.58-.16,5.15-.05,7.72,0s5.33.07,8-.08a9.1,9.1,0,0,1,2.64.11c1.63.38,3.26-.14,4.9-.13,2.85,0,5.7.12,8.56.15a46.94,46.94,0,0,1,3.28,3.93,21.12,21.12,0,0,0,3.55,4.23,17.37,17.37,0,0,1,2.25,2.24l1.17,1.61c1.48,1.67,3.08,3.22,4.41,5a27.74,27.74,0,0,0,2.56,3.21,17.73,17.73,0,0,1,2.3,3.22,19.3,19.3,0,0,0,3,3.5,5,5,0,0,1,1.33,4.94c0,.12-.05.3-.13.34-2.13,1-3.86,3-6.67,2a15.41,15.41,0,0,0-6.66-.8c-.57-.83-1.4-.26-2.09-.36a26.3,26.3,0,0,1-3.62-1.17c-2.59-.75-5.28-1-7.85-1.92-1.77-.61-3.65-.9-5.47-1.35a3.61,3.61,0,0,0-1.82,0,7.85,7.85,0,0,0-2.94-.72,23.18,23.18,0,0,1-9.33-1.94A4.84,4.84,0,0,0,126,214.3Z" style="fill:#e86266;"/><path d="M127.8,30.1a6.22,6.22,0,0,0,2-.09,9,9,0,0,1,6.55,2,30.33,30.33,0,0,0,3.14,2.59c.81.47.51,1.51,1.51,1.91a4.23,4.23,0,0,1,1.7,2.21,9,9,0,0,1,1,2.65c.1,1.17.66,2.45-.45,3.61a3.16,3.16,0,0,0-.39,2.13c.15,1.84-1,3.14-1.87,4.35a11.83,11.83,0,0,0-2.15,4c-.59,2.11-1.45,4.1-3.58,5.18-.23.12-.36.41-.56.58a6.29,6.29,0,0,1-4.86,1.66c-5.59-.31-10.26-2.91-14.87-5.63-2-1.18-3-3.34-3.73-5.5-.09-.26-.27-.58-.18-.79.7-1.73.1-3.56.47-5.3a13.41,13.41,0,0,1,2.15-4.35A22.41,22.41,0,0,0,116.16,37a9.27,9.27,0,0,1,7.48-6.1C125,30.65,126.26,29.59,127.8,30.1Zm-1.39,22.84a3.18,3.18,0,0,0,3.21-1.8c1.4-2.58,3.19-5,4-7.84.37-1.28.36-1.75-.77-2.25a4.72,4.72,0,0,1-1.51-1,3.52,3.52,0,0,0-5.55.94,20.55,20.55,0,0,1-1.9,3.14c-1.13,1.41-1.46,3.22-2,4.89a1,1,0,0,0,.05.59A4.83,4.83,0,0,0,126.41,52.94Z" style="fill:#e86266;"/><path d="M76,397.38a70.43,70.43,0,0,0,8.6.7c2.31.15,4.64-.17,7-.19a54.22,54.22,0,0,1,6.13.39c2.32.24,4.66.75,7,.4a1.82,1.82,0,0,1,.62,0c2.73.56,5.45.12,8.18,0,1.68-.07,3.35-.23,5-.38s3.22.25,4.89,0a32.76,32.76,0,0,1,8.54-.46c1.91.16,3.83.06,5.75.09a2,2,0,0,0,1.55-.39A2.82,2.82,0,0,1,142,397c-.39.77.44,1.2.5,1.81.29,2.62,1.56,5,1.87,7.57.07.62.57,1.08.43,1.72-.29.29-.63.71-1,.4-.83-.61-1.76-.33-2.59-.29-2.05.1-4.06.61-6.15.64-4.23.07-8.44.65-12.68.75a3,3,0,0,1-2.88-1.24,10,10,0,0,0-2.29-2.14c-.9-.7-1.91-.62-2.76-1.09-1.67-.92-3.32-.19-4.6.46l-3,1.5c0-.33-.34-.5-.51-.3a.66.66,0,0,0,.08,1c-.28.37-.91.21-1.08.52-.88,1.61-2.41,1.3-3.66,1.06-4.41-.83-8.87-.1-13.27-.54-1.38-.14-2.69.22-4,.14-2.3-.13-4.66-1-6.85.51,0,0-.11-.05-.17-.09-1.77-1.28-1.46-3.23-1.42-5C75.89,402.06,76,399.72,76,397.38Z" style="fill:#f2bc1c;"/><path d="M178.61,52c-.9.77-1.46,1.58-1.07,2.74a.91.91,0,0,1-.16.77A18.59,18.59,0,0,0,174.7,60c-1.11,2.09-2.53,4-3.81,5.92-1.88,2.88-3.22,6.07-5.31,8.81-1.14,1.49-1.27,1.52-2.94.63-1-.56-2.29-.3-3.37-.8a11.68,11.68,0,0,0-1.6-.41c-1.83-.54-2.26-1.65-1.06-3.1a1.48,1.48,0,0,0,.2-1.7,2,2,0,0,1,.26-1.87c.88-1.72,2.13-3.2,3-4.93.5-1,.41-1.2-.65-1.65-1.53-.64-3.31-.14-4.79-1.08-.31-.2-.63.16-.81.47-1.18,2.05-3,3.68-4,5.86-.88,1.88-1.17,2-3.19,1.61a3.92,3.92,0,0,0-.81-.18c-3.24.15-4.51-2-5.51-4.59a1.12,1.12,0,0,1,.1-1.14,55,55,0,0,1,3-5.05c1.16-1.53,1.47-3.54,3-4.84a.81.81,0,0,0,.16-.59c-.12-2.22,1.6-3.74,2.13-5.67.44-1.6,1.84-2.34,2.52-3.69.59-1.16,1-1,2.37-.45s2.61.84,3.88,1.35c2,.78,2,.83,1.63,2.86a1.48,1.48,0,0,0-.09.4c.27,1.91-.57,3.54-1.27,5.21-.61,1.46-.55,1.36.84,2.16a19.2,19.2,0,0,0,5,1.68c.7.18,1.18.06,1.37-.76.37-1.6,1.27-3,1.67-4.63a2.34,2.34,0,0,1,3.6-1.56,63.49,63.49,0,0,0,7.22,3.09C177.8,51.57,178.14,51.79,178.61,52Z" style="fill:#e86266;"/><path d="M103.88,330.29c-3.28-.29-6.59-.35-9.81-.94-2.19-.41-4.39-.81-6.6-1.12a63.45,63.45,0,0,1-6.65-1.33c-2.58-.65-5.46-.6-7.66-2.54a4.79,4.79,0,0,0-1.9-.76c-.67-.18-.57-.67-.59-1.14a4.21,4.21,0,0,1,1.25-2.3,54.6,54.6,0,0,1,5-4.46,11.83,11.83,0,0,0,2.76-2.95,4.27,4.27,0,0,1,1-1c1.83-1.56,3.69-3.08,5.51-4.65,2.37-2,4.71-4.11,7.07-6.17A37.17,37.17,0,0,0,99.17,308a14.34,14.34,0,0,0,6.12,3.58,23.3,23.3,0,0,1,4.41,1.52,2,2,0,0,1-1.39.12c-3-.52-6.59,2.46-6.49,5.55.08,2.42.6,4.73,2.47,6.52.38.36,1,.8.76,1.37C104.64,327.85,104.84,329.26,103.88,330.29Z" style="fill:#f2bc1c;"/><path d="M149.17,317.47c-.61.76-.46,1.77-.89,2.61-.65,1.3-1.12,2.67-2.92,2.79-.61,0-1.07.55-1.55,1-.86.73-1.62,1.69-3,1.32-.6-.16-.85.71-1.39,1a13.64,13.64,0,0,1-4.47,1.08c-1.72.28-3.32,1.33-5.16,1-.36-.07-.78.23-1.18.33-2.81.75-5.7.69-8.56,1-1.54.17-3.07-.28-4.59.2-1.1.35-2.15-.64-3.33-.22a8.7,8.7,0,0,1-3.21.45c.29-.94.24-2,1.7-2.17,4.07-.38,6.31-2.35,6.9-6.23.29-1.91.49-3.86-1.31-5.46-.71-.64-1.22-1.55-2.15-2-.3-.15-.23-.44-.14-.71a28.07,28.07,0,0,0,3.41,0c.71-.08,1.38.36,2,.08,2.3-1,5-1,7.1-2.43,2.51-1.63,4.88-3.38,6.44-6.1.62-1.08.63-2.46,1.7-3.28,1.74,2.06,4.1,3.51,5.63,5.77,2.29.93,2.54,3.91,4.85,4.82C145.93,314.37,147.83,315.7,149.17,317.47Z" style="fill:#f2bc1c;"/><path d="M77.26,409.38c.06,0,.15.1.17.09,2.19-1.46,4.55-.63,6.85-.51,1.35.07,2.66-.28,4-.14,4.4.44,8.86-.29,13.27.54,1.25.23,2.78.55,3.66-1.06.17-.31.8-.15,1.08-.52l.44-.72,3-1.5c1.28-.65,2.93-1.38,4.6-.46.85.47,1.86.39,2.76,1.09a10,10,0,0,1,2.29,2.14,3,3,0,0,0,2.88,1.24c4.24-.1,8.45-.68,12.68-.75,2.09,0,4.09-.54,6.15-.64.83,0,1.76-.32,2.59.29.41.3.75-.11,1-.4a2.78,2.78,0,0,1-1.15,3.36,1.8,1.8,0,0,0-.78,1.68c-1.26,1.34-3,1.11-4.54,1.24-2.76.25-5.52.53-8.28.75-1.56.13-3.15.11-4.73.15s-3.22.54-4.9.1c-.82-.21-1.38.6-1.58,1.53-.41,1.92-1.83,3.21-3.2,4.39-2.78,2.39-5.84,1.66-8.76.26a7,7,0,0,1-4.17-5c-.12-.56-.48-1.52-.76-1.53-1,0-1.77-.86-2.74-.54a11.1,11.1,0,0,1-4.63.14,8.14,8.14,0,0,0-2.6,0,17.62,17.62,0,0,1-5.49.05,66.24,66.24,0,0,1-10.31-1.21c.14-1.19.27-2.37.42-3.56C76.61,409.47,76.87,409.32,77.26,409.38Z" style="fill:#163847;"/><path d="M55.18,168.49c-.72-.29-1.64.62-2.24-.37a.26.26,0,0,0-.18-.08c-1.4,1.66-3.21,0-4.77.58a4.37,4.37,0,0,1-1.63-.05c-.43,0-.56-.62-1-.59-.83,0,.16.7-.26.79-.23.05-.51-.14-.77-.18a3.5,3.5,0,0,0-3.05.54c-1.64-.05-2.46-.89-3-2.47a97.75,97.75,0,0,1-3.85-13c-.34-1.6-.36-1.59,1.13-2.45,3.31.2,6.63.07,9.95.1a109.88,109.88,0,0,1,11.77.38,11.07,11.07,0,0,1-.76,3.27,17.53,17.53,0,0,0-.94,7.18A19.72,19.72,0,0,1,55.18,168.49Z" style="fill:#163847;"/><path d="M23.1,200.51a4.58,4.58,0,0,1,1,3.39c-.13,1,.7,1.6.83,2.47-.65.43-1.62-.31-2.19.68-.14.25-.94.28-1.52.1-3.17-1-6.21-2.1-8.07-5.2-.65-1.08-1.85-1.77-2.35-3.06A18.55,18.55,0,0,1,9.14,192a11.29,11.29,0,0,1,2.75-7.55,13.76,13.76,0,0,1,8.8-5c1.21-.15,2.37.56,3.56.05.1.31.08.7.58.69a11.69,11.69,0,0,1,7.08,2.35,3.82,3.82,0,0,0,.76.26c.7.29,1.41.54,2.08.89,1.91,1,2,2.58.17,3.73-2.13,1.36-3.57,1.29-5.72-.36-1-.77-2.2-.58-3.31-.86-.62-.16-1.32,0-1.81-.7s-1.22.58-1.86,0c-1-1.06-1.77.05-2.55.27-3.3.95-6.1,5.76-3.68,9-.28,0-.53.18-.48.48s.28.21.48.13c-.13.38.08.62.3.89a34.68,34.68,0,0,1,2.53,3.33,1.28,1.28,0,0,0,1.5.68A5.89,5.89,0,0,1,23.1,200.51Z" style="fill:#163847;"/><path d="M139.73,217.13a3.61,3.61,0,0,1,1.82,0c1.83.44,3.7.74,5.47,1.35,2.57.88,5.26,1.17,7.85,1.92a26.3,26.3,0,0,0,3.62,1.17c.7.1,1.53-.47,2.09.36-.67,1.77-.12,3.64-.46,5.46-.53,2.94-.72,5.93-1.14,8.89-.3,2.18-.53,4.38-.88,6.57-.32,2-.27,2-2.38,2.06a9.08,9.08,0,0,1-2.85-2c-1.08-1-2-2.06-1.76-3.87a10.46,10.46,0,0,0-.44-3.94c-.36-1.42-.35-2.92-.59-4.39a16.78,16.78,0,0,0-4.88-9.68,23.1,23.1,0,0,0-3.48-2.31C141,218.31,140.07,218.08,139.73,217.13Z" style="fill:#54b7ca;"/><path d="M125,465.17c1.44-.07,3,.2,4.28-.28,2.43-.89,4.82.05,7.2-.31a2.92,2.92,0,0,1,1,.22c-.07.87-.18,1.74-.21,2.61a47.13,47.13,0,0,0,.34,7.33c.15,1.23-.37,2.58.6,3.69a.64.64,0,0,1,0,.59c-.74,1.14-.06,2.22.12,3.32-2,.39-4.11.1-6.07.87-.21.08-.53-.06-.79-.13a5.74,5.74,0,0,0-5.54,1.47A2.92,2.92,0,0,1,125,482c.27-2.79-.08-5.58,0-8.37S125.13,468,125,465.17Z" style="fill:#f2bc1c;"/><path d="M86.4,465.54c1.74-.24,3.52-.14,5.22-.37a36.14,36.14,0,0,0,4.56-.42,3.48,3.48,0,0,1,2.15.28c.35,3,0,6.07.09,9.11a41.6,41.6,0,0,0,.54,6.94A11.16,11.16,0,0,1,95.5,481c-2.7-.13-5.62-1-7.73,1.7-1.16,0-1.53-.54-1.67-1.76a97.85,97.85,0,0,1-.5-10.62A10.39,10.39,0,0,1,86.4,465.54Z" style="fill:#f2bc1c;"/><path d="M87.78,482.7c2.11-2.67,5-1.83,7.73-1.7a11.16,11.16,0,0,0,3.45.07,26.8,26.8,0,0,1,6.69-.33c1.64.17,2.1.53,2.31,2.18s.09,1.39-1,2.2c-3.12,2.39-6.74,2.77-10.43,2.66-1.42,0-2.83.62-4.59-.17,1.15,1.93.43,3.82.94,5.57a2.19,2.19,0,0,1-.3,1.79,8.35,8.35,0,0,1-1.79,1.64c-.75.57-1.54.1-1.73-1a2.1,2.1,0,0,0-1.16-1.75c-1.28-.69-1.57-2.05-1.7-3.35a5.91,5.91,0,0,0-1.3-3.7c-1-1.1-.48-2.06.75-3.06C86.34,483.19,87.37,483.6,87.78,482.7Z" style="fill:#163847;"/><path d="M179.58,78.29l-.54-.37c-1.83-1.26-3.18-3-4.81-4.52-.49-.45-.33-.86.09-1.2,2.6-2.12,4-5.26,6.66-7.43,1.28-1.05,2.16-2.71,3.29-4.06a22.94,22.94,0,0,0,2.47-3.14c.84-1.43,1.49-1.44,2.87-.53a24.57,24.57,0,0,1,4,3.22c.57.58.92,1.15-.24,1.45a.52.52,0,0,0-.4.78c.35.91-.27,1.33-.81,1.88a31.13,31.13,0,0,0-4.91,5.93,3.51,3.51,0,0,1-.67.78,25.83,25.83,0,0,0-4,4.64A16.49,16.49,0,0,1,180.1,78,1.77,1.77,0,0,1,179.58,78.29Z" style="fill:#e86266;"/><path d="M125.9,484.55a5.74,5.74,0,0,1,5.54-1.47c.26.07.58.21.79.13,2-.77,4.06-.48,6.07-.87,2.35.21,4.55-.63,6.78-1.13a17.45,17.45,0,0,1,3-.42c1.1-.05,1.53.37,1.51,1.43a2.62,2.62,0,0,1-.27,1.4c-.78,1.1-.42,2.64-1.26,3.59s-2.2.26-3.32.56a49.26,49.26,0,0,1-8.61,1.11c-1,.09-2,.56-3.11.27-.07,1.82-.19,3.63-.2,5.45,0,.83-.31,1.05-1.09,1.07a6.1,6.1,0,0,1-5.49-4.12,8.3,8.3,0,0,0-1.27-3.4C124.08,487,124.63,485.49,125.9,484.55Z" style="fill:#163847;"/><path d="M28.95,57.63h-.62a6,6,0,0,1-5.65-3.31c-.42-.77-1.55-1.46-1.49-2.12C21.3,50.89,19.86,51,19.72,50s-1.23-1.32-1.54-2.12c-.87-2.23-2.71-3.7-4.07-5.54-1.17-1.59-.87-2.89.92-3.82a7,7,0,0,1,2.53-.79,3.83,3.83,0,0,1,4,2.33c1.34,2.8,3.55,5,5,7.75,1.22,2.29,3.16,4.07,4.46,6.32.43.74,1,1.17.49,2.14a2.12,2.12,0,0,1-2.12,1.3h-.41Z" style="fill:#e86266;"/><path d="M13,69.74c-1.19.56-1.69.17-2-1.21A4.6,4.6,0,0,0,9,66a18.47,18.47,0,0,1-3.9-3.91c-.3-.36-.73-.67-.65-1.23.1-.75-.47-1-.88-1.5-.75-.85-1.87-1.45-2.06-2.74,0-.13-.1-.35-.17-.35-2.34-.14-.74-2-1.18-3-.23-.49.67-1,1.35-.8a17.81,17.81,0,0,0,4.64.61,2.76,2.76,0,0,1,1.68,1A115.91,115.91,0,0,1,17.86,66.49c.76,1.12.59,2.21-.6,2.5C15.89,69.31,14.62,70.34,13,69.74Z" style="fill:#e86266;"/><path d="M43.19,49.07a19,19,0,0,1-3.57-1c-1.94-.64-2.47-2.09-3.11-3.69-1.13-2.85-1.81-5.87-3.2-8.63-.15-.3-.19-.78-.51-.84-1-.19-1.57-.68-1-1.68s.54-2.71,2.43-2.54a13.46,13.46,0,0,1,4,1c1,.44,1.18,1.79,1.7,2.73,2,3.5,2.92,7.47,5.1,10.88a3.25,3.25,0,0,1,0,3.16C44.68,49.25,43.74,48.75,43.19,49.07Z" style="fill:#e86266;"/><path d="M174.16,85.55c.31,1.89-1.08,3-2.24,4.14-2.22,2.16-4.9,2.09-7.54.93-1.6-.7-2.25-2.35-2.83-3.87a7.83,7.83,0,0,1-.31-2.59c0-1.12-.05-2.56,1.69-2.82a2.15,2.15,0,0,0,1.3-1c1.11-1.59,2.84-1.92,4.55-2.31a1.42,1.42,0,0,1,1,.11C171.66,79.13,174.14,83.25,174.16,85.55Z" style="fill:#e86266;"/><path d="M57.84,38.12a27.79,27.79,0,0,1,1.49,4.65c.37,2.57-.14,2.77-2.26,2.74a8.06,8.06,0,0,0-3.76.43c-.28.13-.53.21-.66-.15A17.65,17.65,0,0,1,51.14,39,3.87,3.87,0,0,0,51,37.71a36.53,36.53,0,0,1-1-5.38,3.57,3.57,0,0,0,0-.61c-.39-1.29.26-2.18,1.58-2s2.51.65,3.77,1c.89.22,1.06,1.13,1.33,1.7.64,1.34,1.32,2.83.42,4.38C57,37.4,56.91,38.08,57.84,38.12Z" style="fill:#e86266;"/><path d="M134.53,301.66c-1.07.82-1.08,2.2-1.7,3.28-1.56,2.72-3.92,4.48-6.44,6.1-2.15,1.39-4.8,1.41-7.1,2.43-.65.29-1.32-.16-2-.08a28.19,28.19,0,0,1-3.41,0c-.47-1.13.79-1.92.59-3,1.71-.26,3.43-.43,5.14-.65,2.94-.39,5.2-1.86,7.42-3.57a10.64,10.64,0,0,0,4.35-7.22,1.25,1.25,0,0,1,.38-.14c.64,0,.86-1.07,1.57-.68s.24,1.12.41,1.67A16.57,16.57,0,0,0,134.53,301.66Z" style="fill:#54b7ca;"/><path d="M47.18,239.94c1.37-1.77,1.8-3.95,2.51-6s1.8-2.53,3.6-1.14,2.22,2.69,1.31,4.82c-.5,1.19-.67,2.52-1.52,3.57a1.29,1.29,0,0,0,0,1.19c-.6,1.59-1.26,3.16-1.77,4.77a.74.74,0,0,1-.85.62c-2.43-.1-5-2.32-3.93-5.34A6.58,6.58,0,0,0,47.18,239.94Z" style="fill:#e86266;"/><path d="M109.7,313.08a23.3,23.3,0,0,0-4.41-1.52A14.34,14.34,0,0,1,99.17,308a37.17,37.17,0,0,1-5.94-7.05c-.32-1.44,1.15-1.23,1.71-1.86,1.25.16,2.51.32,2.63,2,2.89,2.7,5,6.42,9.25,7.38,1.4.32,2.53,1.44,4.07,1.3C110.92,311,110.87,312.23,109.7,313.08Z" style="fill:#54b7ca;"/><path d="M39.34,228.11a3.1,3.1,0,0,0,1.74-1,15.24,15.24,0,0,1,1.38-1.51c1.57-1.44,2.93-1,3.32,1.13.11.6.54,1.14.37,1.79s0,1.39-1.13,1.76c-.9.28-1.5,1.65-2.13,2.61a9.36,9.36,0,0,1-1.37,1.52,16.16,16.16,0,0,1-2.6,1.86c-1.18.61-2.11.36-2.44-.93-.38-1.49.07-3,.28-4.44.13-.9,1-1.37,1.76-1.89C38.86,228.75,39.25,228.57,39.34,228.11Z" style="fill:#e86266;"/><path d="M57.84,38.12c-.93,0-.8-.72-.81-1.31C58.32,36.62,57.53,37.71,57.84,38.12Z" style="fill:#d36c71;"/><path d="M262.26,214.9c-.39-2.55,0-5.4,0-8.25,0-4.3-.07-8.6-.23-12.9,1-1.66-.38-3.34.07-5.1a23.15,23.15,0,0,0,.2-5.25c0-1,0-2,0-3-.29-6.2,0-12.41-.13-18.61-.12-5.11.21-10.23-.11-15.35a17,17,0,0,1,.2-4.67,1.63,1.63,0,0,0,0-.62,27.68,27.68,0,0,1,.14-7.49c.09-1-.22-2-.22-3,0-6.7.1-13.4,0-20.1,0-2.82.28-5.64.07-8.45-.24-3.25,0-6.48-.09-9.73,0-3-.37-6,.31-9a8.45,8.45,0,0,0-.2-2.43c-.05-.6,0-1,.83-1.08a4.91,4.91,0,0,0,3.77-2.69c.33-.55,1.62-.74,1.84-.25.43.94.87,1.31,1.78.62.93.89,2,.09,3,.32.2,0,.46.14.61.06,1.95-1.11,4,.07,6-.31,1.57-.3,3.25-.58,4.8.27,1.49-1.17,3.15.58,4.74-.29.44-.24,1.23.36,1.94.36,1.14,0,2.31-.83,3.41.13,1.57-1.28,3.45.57,5.1-.53.64-.43,1.32.48,2.15.39a22.19,22.19,0,0,1,4.58-.11c1.07.1,2.13-.29,3.18,0a.71.71,0,0,0,.85-.38c.29-.42.47-.37.62.12s.5.31.82.4c1,.31,1.67-1.23,2.8-.42.85.61,2,.35,3,.48s1.53-.41,2.48-.27a12.65,12.65,0,0,0,3.93,0,13.56,13.56,0,0,0,1.51-.26c.37-.11.72-.45,1.15-.28a8.63,8.63,0,0,0,5.5.05c.24-.06.54.09.81.14a25.26,25.26,0,0,0,5.55.35c1.71-.12,3.53,1,5.18-.23.32-.23.63.12.92.3s.53.42.73.17c.86-1.11,1.82,0,2.68-.19,2-.36,4,.15,6,0a8.82,8.82,0,0,1,3.11,0c1.2.35,2.46-.49,3.7,0,.64-.86,1.23.3,1.82.06,2.23-.91,4.53.55,6.78-.23a1.49,1.49,0,0,1,1.77,1.36c0,1.19-.31,2.34,1,3.15.37.22.46,1.15.44,1.74-.09,2.36.15,4.73,0,7.05a16.86,16.86,0,0,0,.41,6,2.55,2.55,0,0,1-.28,2.29c-.35.53.76,1.58-.28,2.32-.18.13-.19.7-.07,1,.35.84.94,1.63-.21,2.34-.22.13,0,.34.1.51a14.14,14.14,0,0,1,.38,2.26,8.83,8.83,0,0,1-.13,2.58,13.79,13.79,0,0,0,.24,4.39c.19.64-.35,1.07-.31,1.68.06,1,.69,2.13-.19,3.14-.17.19,0,.55.22.72.92.66.74,1.37.23,2.22a2,2,0,0,0-.29,1.13c.11,2,.16,4,.09,6.07,0,.75.67,1.27.5,1.86s-.45,1.09.07,1.62c-1,1.13-.37,2.47-.47,3.71-.21,2.66.22,5.34-.12,8a7.1,7.1,0,0,0,.24,3.22c.11.31.27.53.07.93-.68,1.39,0,2.92-.32,4.38-.15.75.52,1.6-.21,2.32,1.17,1.09-.5,2.68.65,3.79.19.19.14.48,0,.76-.44.86-1.23,1.73-.07,2.63-.78,1.16.13,2.41-.23,3.63s.11,2.81-.34,4.18c0,.1.07.26.12.38.51,1.13.56,1.25.06,2.66a2.43,2.43,0,0,0,0,1.38,9,9,0,0,1,.15,2.4c-.14,1.58-.39,3.15.46,4.61.37.64-1,1-.19,1.66a32.24,32.24,0,0,0-.28,7,12.77,12.77,0,0,1,0,1.64c-.09,1.08-.25,2.16-.39,3.24s.82,1.68.72,2.72c-.06.64.31,1.31-.21,1.93a.74.74,0,0,0-.13.56,4.25,4.25,0,0,1-.13,2.61c-.12.32-.58,1.15.09,1.69.47.37.5.75-.17,1s-.39.57-.22,1a4,4,0,0,1,.32,1.38c.07,1.28.7,2.52-.18,3.82-.44.65.63,1.34.28,2.24a3.13,3.13,0,0,0,.24,2.27c-1,.46-.33,1.33-.42,2a2,2,0,0,0,.67,2c.89.58-.55,1.61.27,1.85,1,.29.81,1.09.84,1.55a1.22,1.22,0,0,1-1.34,1.22,3.15,3.15,0,0,1-1.37-.41c-1.36-.62-2.71-1.22-4.27-.8a.8.8,0,0,1-.74-.25,1,1,0,0,0-1.56.26,1.65,1.65,0,0,1-1.59.73c-3.49-.21-7-.06-10.49-.06s-7.12-.19-10.66-.11c-3,.06-6,.3-9,.06a41.47,41.47,0,0,0-7.42.27,6.59,6.59,0,0,1-1.56-.27,46.25,46.25,0,0,0-6.39,0c-2.87.07-5.75-.17-8.63.16a53.58,53.58,0,0,1-6.29,0c-3,0-6.06,0-9.09,0-4,0-8.1.23-12.12-.05-3-.21-5.87.33-8.81,0a32.73,32.73,0,0,0-7.47.22,1.49,1.49,0,0,1-1.81-1.35,2.91,2.91,0,0,0-1.34-2.39.94.94,0,0,1-.53-.93A43.25,43.25,0,0,1,262.26,214.9Zm16.44-37.26a2.28,2.28,0,0,0,1.49,2.53,1.47,1.47,0,0,1,.79.82,6.18,6.18,0,0,0,1.46,1.69,39.8,39.8,0,0,1,4.15,4.08,16.69,16.69,0,0,0,2.91,3.06c1.16.83,1.72,2.35,3.08,2.88s2.08,1.63,3.33,2.25a8,8,0,0,0,4.39.8,2,2,0,0,0,2-1.86c.18-1,.86-1.15,1.63-1.48s.08-1.64.91-2.15c.06,0,.12-.09.18-.09.93,0,1.12-.84,1.65-1.31.8-.72,1-2.15,2.5-2.13.3,0,.77-.38.6-.69-.51-1,.38-1.31.79-1.55a11.35,11.35,0,0,0,2.43-2,8.17,8.17,0,0,0,1.38-1.45c.43-.76,1.55-.85,1.73-1.92.07-.43.69.85,1,0,.16-.44.06-.95.4-1.35a1.08,1.08,0,0,1,1.73,0c.49.48.05,2.08,1.57,1.36-.11,1.23,1.19,1.34,1.73,2.08a8.49,8.49,0,0,0,3.34,3c.47.21,1.36.69,1.13,1.43s.16,1.12.69,1.16a2.18,2.18,0,0,1,1.92,1.59c.63,1.64,3.22,1.69,3.11,3.91,0,.07.34.22.53.23.88.06,1.1.6,1.2,1.38a2,2,0,0,0,2.28,1.9c1.4-.13,2.79.05,4.19-.83a18,18,0,0,1,2.41-1.74c2.1-.86,3.25-2.78,4.86-4.16a65.86,65.86,0,0,0,4.88-5.31c.78-.84,1.78-1.48,2.51-2.35.41-.49.51-1.08,1.35-1.29a2,2,0,0,0,1.16-2.65,3.66,3.66,0,0,1-.23-1.81,5.53,5.53,0,0,0-1.07-4.78c-.38-.48-.58-1-1.27-1.19s-.94-.72-1.38-1.13c-.85-.81-1.3-1.94-2.2-2.65a64.27,64.27,0,0,1-7.93-7.9c-.77-.86-1.82-1.37-2.62-2.18a1,1,0,0,1-.12-1.6c1.45-1.78,3.39-3.06,4.73-5,.37-.53,1.31-1,1.7-1.53a20.39,20.39,0,0,1,4.61-4.22c.23-.15.52-.25.56-.55.15-1.15,1.16-1.59,1.85-2.29,1-1,2.24-1.85,2-3.57a1.18,1.18,0,0,1,.64-1.19,1.4,1.4,0,0,0-.14-2.47c-.44-.2-.53-.6-.82-.78-.81-.5-1.26-1.39-2-1.87s-1.74-.61-1.43-1.86c.06-.23-.17-.3-.39-.32-.82-.06-1.24-.73-1.74-1.21a55.82,55.82,0,0,1-5.28-5.27c-1-1.2-2.28-2-3.1-3.37a12.88,12.88,0,0,0-4.63-4c-.58-.35-1.13-.5-1.66.08-1.48,1.62-3.26,2.94-4.64,4.69-.53.67-.94,1.56-1.72,2-1.49.78-2.27,2.28-3.57,3.25s-2.09,2.67-3.44,3.7A16.85,16.85,0,0,0,320.1,131c-1.25,1.5-2,1.46-3.24.07a9.06,9.06,0,0,0-1.17-1.35c-3.32-2.53-5.43-6.33-9-8.55-1.47-2.38-3.68-4.08-5.56-6.09a1.64,1.64,0,0,0-2.16-.36c-.85.33-1.08,1.25-1.88,1.5s-1.64.32-1.38,1.48c-1.71.7-2,2.94-3.86,3.49-1.53,2.31-3.67,4.06-5.61,6-.55.54-.89,1.56-2,1.36-.36-.06-.43.38-.32.6.45.91-.15,1.12-.81,1.37a2.41,2.41,0,0,0-1.24.69,5.62,5.62,0,0,1-2.56,2.31c-.38.13-.7,1.88-.37,2,1.36.54,1.25,1.64,1.22,2.74a1.2,1.2,0,0,0,.62,1c2.13,1.56,3.25,4.1,5.56,5.56a7.3,7.3,0,0,1,2.41,2.25c.78,1.37,2.69,1.8,2.86,3.61,1.7.5,2.39,2.09,3.5,3.23s1.08,1.29-.09,2.24a25.85,25.85,0,0,0-3.22,3c-.73.83-1.43,1.7-2.19,2.51-2.07,2.22-4.68,3.92-6.49,6.39-1.07,1.46-2.95,2.07-3.72,3.87a3.51,3.51,0,0,0-.59,1.88A7.39,7.39,0,0,1,278.7,177.64Zm20.87-81.56c1.39-.15,2.41-.32,3.44-.35a2.74,2.74,0,0,0,1.76-.92c1-.87,2.11-4.73,1.87-6.06a2.21,2.21,0,0,0-.25-1c-.54-.64-.73-1.48-1.22-2.12a6.33,6.33,0,0,0-3.05-2.56,6.59,6.59,0,0,0-7.81,3.66c-.25.5-1.61,1.57.1,2.22.2.08.14.63-.06.74-1.1.61-.46,1.32-.21,2.06.64,1.87,2.18,2.76,3.74,3.68C298.53,95.82,299.1,96.36,299.57,96.08Zm21-1.16c2.31-.67,4.74-.94,6.21-3.53,1.12-2,.3-3.79.33-5.67-1.66-1.33-2.62-4-5.56-2.9a.63.63,0,0,1-.57-.11c-.69-.87-1.5-.25-2,0a17.36,17.36,0,0,0-3.88,3.2,2.09,2.09,0,0,0-.57,1.29,21.81,21.81,0,0,0,.29,3.77c.15.82.44,1.71,1.68,1.61.55,0,.9.33.38.92,0,.05.07.34.07.34C318.31,93.58,319,95.62,320.59,94.92Zm-35.67-5.33c.76-.92-.1-1.64-.26-2.34-.49-2.17-4.17-4.51-6.33-4.11s-4.91,2.07-5.19,5a4.68,4.68,0,0,1-.27,1.53c-.52,1.1,0,1.92.58,2.74s1.11,1.25,1.49,2A2.65,2.65,0,0,0,277.6,96c1.4-.27,3.43,1.56,4.25-1.06,0-.07.39-.07.59,0,.54.11.77-.26.91-.63C283.95,92.68,286.05,91.65,284.92,89.59Zm56.39,5.27a11.47,11.47,0,0,0,2.75-.77c2.05-1,2.92-2.79,3.64-4.6a4.93,4.93,0,0,0-1.1-5.12c-1.34-1.51-3.23-1.77-5.21-1.86a3,3,0,0,0-2.33,1,1.49,1.49,0,0,1-.55.23,5.23,5.23,0,0,0-3.2,6.41c.12.32.46.68.39.93-.47,1.72.94,2.14,1.91,2.83A7.64,7.64,0,0,0,341.31,94.86Zm13.05-5.06c0,.2,0,.48-.07.74a3.28,3.28,0,0,0,1.54,3.05c1.12.88,2.76,1.12,4.18,1.61a.8.8,0,0,0,.41,0,8.45,8.45,0,0,0,5.84-4.39,1.59,1.59,0,0,0,.28-1c-.18-.73-.56-1.46-.06-2.15.64-.89-.6-1.09-.6-1.93,0-1.6-2.18-3.16-3.8-3.18-1.29,0-2.54.72-3.88.17-.4-.16-.68.33-1,.58-1.13.9-1.39,2.29-2.11,3.39A3.54,3.54,0,0,0,354.36,89.8ZM269.08,208.16c0-.11-.07-.27-.15-.32s-.21.06-.32.1c.05.11.07.25.16.32S269,208.31,269.08,208.16Z" style="fill:#fefefe;"/><path d="M159.28,198.92a17.37,17.37,0,0,0-2.25-2.24,21.12,21.12,0,0,1-3.55-4.23,46.94,46.94,0,0,0-3.28-3.93,1.75,1.75,0,0,1,1.12-.42l7.74.24c.36.55,1.21.94.41,1.83a1.68,1.68,0,0,0,0,1.77,6.39,6.39,0,0,1,0,4.44C159.28,197.16,159.41,198.07,159.28,198.92Z" style="fill:#f2bc1c;"/><path d="M328.45,39.78c.25.16.69-.23.8.28,0,.08-.11.26-.2.28-.52.14-.44-.32-.57-.59Z" style="fill:#54b7ca;"/><path d="M118.38,188.48c.14.42.56.64.48,1.26-.29,2.35,0,4.74-.39,7.09a.93.93,0,0,0,0,.41c.8,2.56.24,5.1,0,7.66-.11,1.21.33,2.42.28,3.68,0,1-.63,2.22.44,3.12-.14.14-.32.27-.25.52-3.79,1.36-7.21,3.23-9.52,6.7a2,2,0,0,1-.71.73c-2,.9-2.61,2.89-3.65,4.53a31.2,31.2,0,0,0-2.82,5.41c-.9,2.33-2.86,3.73-4.82,5.09a20.53,20.53,0,0,1-10.19,3.45,7.21,7.21,0,0,1-3.19-.65c-2-.83-3.43-2.59-5.34-3.66-.45-.25-.84-1.29-1.32-1.94a26.61,26.61,0,0,1-2.06-3.1A34.11,34.11,0,0,1,71.8,220,27.51,27.51,0,0,0,70.44,216a52.38,52.38,0,0,1-1.71-5.87,64.56,64.56,0,0,1-1.89-8c-.45-3.55-1.52-6.94-2.24-10.41a7.25,7.25,0,0,1-.29-2.63c.17-.93-.36-1.4-.74-2,2.59.22,5.17.49,7.76.65,1.94.12,3.9,0,5.84.32,1.24.19,2.42-.53,3.64-.28,2.11.43,4.19-.11,6.28-.09a34.11,34.11,0,0,1,6.12.38c3.38.25,6.76.26,10.16.18s6.83,0,10.25-.11A40.05,40.05,0,0,1,118.38,188.48Z" style="fill:#f2bc1c;"/><path d="M87.08,187.72c-2.09,0-4.17.51-6.28.09-1.22-.25-2.4.47-3.64.28-1.94-.29-3.89-.2-5.84-.32-2.59-.16-5.17-.43-7.76-.65-1.11-.49-1.43-2-2.79-2.17-.32,0-.37-.52-.43-.87-.1-.54-.25-1.09-1-1-.12,0-.35-.07-.36-.13-.27-2.14-2.62-3.5-2.21-5.93a6.62,6.62,0,0,0-.58-3c-.56-1.81-.47-3.72-1-5.52a19.67,19.67,0,0,0,.33-6.32,17.53,17.53,0,0,1,.94-7.18,11.07,11.07,0,0,0,.76-3.27,4,4,0,0,1,1.41-1.84c-.84-1,.39-1.38.6-2.05a16,16,0,0,1,1.31-2.42,1.36,1.36,0,0,1,.93-.65c.17,0,.38.07.57.11-.07-1.82,2-1.61,2.63-2.72a1.82,1.82,0,0,0,2-.08,7.06,7.06,0,0,1,3.73-1.33,43.36,43.36,0,0,0,4.6.16c4.59-.14,9.19,0,13.79,0-.3.37-.59.74-.89,1.1s-.52.39-1,.16a1.71,1.71,0,0,0-2.52,1.46c0,.37,0,.49-.36.42-1.06-.21-1.35.58-1.83,1.27-1.09,1.57-1.43,3.49-2.53,5.06-.75,1.08-.66,2.53-1,3.78a31.33,31.33,0,0,0-1,6.06c-.08,1.5,0,3,.07,4.49,0,1.76-.2,3.5-.08,5.27.16,2.48,1,4.78,1.31,7.21.88.45,0,1.12.19,1.71a12.57,12.57,0,0,0,2.38,4,8.52,8.52,0,0,0,1,1.5c1.26,1.06,1.85,3.07,4,3C86.73,187.4,86.91,187.61,87.08,187.72Z" style="fill:#e86266;"/><path d="M178.08,158.56c-.16.3-.32.64-.13.83,1.72,1.79-.19,4,.7,5.87-.75,1.07,0,2.38-.62,3.53-.26.49.81,1.37-.2,2,1,.63-.06,1.27-.1,1.86a46.84,46.84,0,0,1-1,5.65c0,.11-.18.3-.26.29-1.32-.19-2,.92-3,1.39a3.63,3.63,0,0,1-2.22.28c-2.26-.44-4.53-.94-6.86-.42-2.37-1.2-4.85.92-7.24-.23a.94.94,0,0,0-1,.24c-.2.19-.43.47-.69.32-2.33-1.3-4.86-.19-7.25-.67-.13,0-.32-.2-.37-.16-1.84,1.46-3.83,0-5.75.27a47.4,47.4,0,0,1-6.18,0h-1.23c-.56,0-1.2,0-1.4-.6s.39-.82.69-1.18c1.08-1.3,2.06-2.69,3.17-3.94s1.78-2.72,3.15-3.66a1.52,1.52,0,0,0,.55-.61c.48-1.15,1.52-1.92,2.12-2.87,1.14-1.8,2.45-3.46,3.74-5.12a79.91,79.91,0,0,1,6.08-7.5,15.79,15.79,0,0,0,2.5-3.29c.63-1.1,1.2-2,2.91-1.52a9.6,9.6,0,0,0,2.71.26c.73,0,1.73.45,2.05-.7.09-.31.24-.36.32-.18.7,1.47,2.18,1,3.09.86a26.36,26.36,0,0,1,5.25.14,2.91,2.91,0,0,0,1.23,0c1.19-.54,1.94,0,2.83.74.46.37.43.46.23.86-.07.15,0,.55.11.57,1.94.55,1,2.46,1.61,3.65A8,8,0,0,1,178.08,158.56Z" style="fill:#163847;"/><path d="M88.84,140.89c-4.6,0-9.2-.13-13.79,0a43.36,43.36,0,0,1-4.6-.16,7.06,7.06,0,0,0-3.73,1.33,1.82,1.82,0,0,1-2,.08c1.07-1.27,2.12-2.57,3.24-3.8a4,4,0,0,1,1.52-1,11.94,11.94,0,0,0,4.32-2.83c1-1,2.23-.9,3.24-1.56a3.27,3.27,0,0,1,3.18-.52c.77.3,1.88-.42,2.78-.27a18.12,18.12,0,0,0,4.87.14,46,46,0,0,1,5-.18c3.17,0,6.38.06,9.56.22a20.65,20.65,0,0,0,7.22-.65c1.18-.36,2.36.19,3.58.1,3-.23,6-.25,9-.26s6,.14,9.07.16c2.73,0,5.46,0,8.18-.09,2-.07,4,.37,6.05.05.42-.07.89-.08,1.34-.14,1.77-.23,3.49-.13,4.32,1.82.32.77,1.08.77,1.58,1.18a7.44,7.44,0,0,1,2,3c.41.89,2.18.6,2.84,1.73a1.57,1.57,0,0,1,.36,1,2.15,2.15,0,0,1-1.53.12,8.12,8.12,0,0,0-5.48-.1c-1.16.31-2.18-.52-3.4-.35-2.42.33-4.89-.16-7.34.29a11.27,11.27,0,0,1-2.85-.23c-2.25-.18-4.49.18-6.73-.11-1.28-.17-2.59.19-3.91.15-3.38-.1-6.76,0-10.15-.05-.07,0-.15-.07-.2,0-1.78.9-3.54-.17-5.32,0a5.54,5.54,0,0,0-1.42.09,8.19,8.19,0,0,1-3.55.2,22.42,22.42,0,0,0-7.68.17,1.49,1.49,0,0,1-1.18-.14c-.95-.94-1.48.78-2.45.27a3.45,3.45,0,0,0-2.53-.55C91.05,140.17,89.95,140.54,88.84,140.89Z" style="fill:#f2bc1c;"/><path d="M92.85,180.3c-.78-.35-1.93,0-2.47-1.08-.08-.17-.3-.39-.46-.39-2.65-.09-2-2.33-2.52-3.83-.36-1.13-.49-2.35-.93-3.45-.23-.56.65-.48.31-.91-.22-.27-.5-.37-.43-.94a8.2,8.2,0,0,0-.19-3.83c-.15-.4,0-.83,0-1.2-.11-.9.66-1.87-.24-2.74a.92.92,0,0,1,0-1.15,3.36,3.36,0,0,0,.73-2.81c-.08-1.75.61-3.4,1-5.09a8,8,0,0,1,1.23-2.31,2,2,0,0,1,2.71-1,4.87,4.87,0,0,0,2.44,0c2.42-.26,4.87.36,7.28-.28,2.93.85,5.89-.31,8.84.15a14.72,14.72,0,0,0,3.37-.24,11.79,11.79,0,0,1,3.73.51c.33.09.29.57.11.66-1.86,1-1.87,3.47-3.71,4.5-.84.47-1.05,1.57-1.6,2.34-1.13,1.61-2.5,3-3.53,4.73s-2.52,3-3.7,4.61c-.72,1-1.28,2.07-2,3-1.63,2.27-3.45,4.39-5,6.69a9.83,9.83,0,0,1-.83,1.42c-.59.6.17,1.86-.7,2C95.18,179.82,94.07,180.19,92.85,180.3Z" style="fill:#163847;"/><path d="M141.36,149.62a21.78,21.78,0,0,0-2,2.57c-1.12,1.49-2.41,2.83-3.42,4.42-.4.62-1.23,1-1.72,1.67-1.87,2.49-3.77,5-5.58,7.51-1.69,2.38-3.65,4.53-5.41,6.85a14.63,14.63,0,0,0-2.4,3.45,1.71,1.71,0,0,1-.8.89,2.16,2.16,0,0,0-1.35,2.11c0,.57-.48,1.15-.85.74-.9-1-1.9-.24-2.81-.33-1.24-.12-2.51.53-3.8-.13-.26-.13-.79.13-1.12.33-.56.32-1,.54-1.64,0s-1.57.21-2.38.12-1.62.41-2.06-.44,0-1.68.66-2.38a46.49,46.49,0,0,0,5.79-8.14c.81-1.37,2-2.29,2.84-3.67a16.85,16.85,0,0,1,3-3.69c1.41-1.34,2.14-3.33,3.77-4.56a.28.28,0,0,0,.11-.17,4.86,4.86,0,0,1,1.9-3.11,9.45,9.45,0,0,0,1.88-2.64,2.33,2.33,0,0,1,2.12-1.42c2,.06,3.9-.11,5.85-.11,2.49,0,5,.17,7.47.1.43,0,.82,0,1-.49a.31.31,0,0,1,.5-.12A2.76,2.76,0,0,1,141.36,149.62Z" style="fill:#163847;"/><path d="M103.41,104.07c1.56-.52,2.41.64,3.48,1.32.78.5,0,1.26.45,1.86a8.09,8.09,0,0,1,1.12,2.82c.23.81-.1,1.23-.84,1.58a16.47,16.47,0,0,0-1.91.71c-1.37.85-1.13.57-2.2-.72-1.3-1.56-1.74-3.38-2.48-5.12-.81-1.91-.31-2.58,1.8-2.53A5.3,5.3,0,0,1,103.41,104.07Z" style="fill:#d36c71;"/><path d="M137.18,120.07c-1.58.32-2.3,1.73-3.4,2.69a1,1,0,0,1-.72-1.08,1.28,1.28,0,0,0-.84-1.29,4,4,0,0,1-2.27-2.73c-.31-.82-.84-1.56-1.13-2.38-.42-1.18,0-1.85,1.2-2.12,2.32-.53,3.87.19,5.18,2.25a5.63,5.63,0,0,1,1.25,3.18C136.44,119.19,137,119.47,137.18,120.07Z" style="fill:#d36c71;"/><path d="M61,99.57c1.22.41,2.77.22,3.31,2.13A6.35,6.35,0,0,0,65.45,104a2.33,2.33,0,0,1,.42,1.14c.2,1.42-.61,2.07-2,1.7-.41-.11-.53-.72-1-.61-1,.26-2,.64-2.66-.67-.4-.87-1.5-1.3-1.48-2.44a2,2,0,0,0-.28-.77c-.2-.45-1-.68-.53-1.36s.82-1.27,1.76-1.21A6,6,0,0,0,61,99.57Z" style="fill:#d36c71;"/><path d="M82,106.73a7.27,7.27,0,0,1-1,.14c-2,0-2.67-.51-3.27-2.39-.06-.19,0-.41-.11-.6-.23-.59-1.21-1.24-.55-1.72s1.31-1.38,2.42-1.37a9.08,9.08,0,0,1,2.63.32c.61.19,1.3.47,1.46,1.24a11.52,11.52,0,0,0,1.2,2.79c.46.89.09,1.56-.93,1.69A10,10,0,0,1,82,106.73Z" style="fill:#d36c71;"/><path d="M60.31,129.59a1.55,1.55,0,0,1-1.68-.93,13.28,13.28,0,0,0-.9-1.38c-.81-1.2-.78-2.05.5-2.71,1.1-.57,2.33-1.72,3.73-.43,2.1-.17,2.1,1.94,3.08,3,.4.42.23,1.59-.57,1.65C63,128.87,61.71,129.41,60.31,129.59Z" style="fill:#d36c71;"/><path d="M119.37,91.48a5.86,5.86,0,0,1,3.75,1.2,2.35,2.35,0,0,1,1.08,1.9c0,.4-.16.83.11,1.2s.88.87.34,1.61a1.75,1.75,0,0,1-1.83.61c-1.17-.5-2.55-.42-3.56-1.36a5.2,5.2,0,0,1-1.56-4.29C117.76,91.23,118.79,91.4,119.37,91.48Z" style="fill:#d36c71;"/><path d="M50.19,137.35c-1.29.17-2,1-2.89.14-.15-.15-.38-.28-.54-.11-1.32,1.34-2.17-.34-3.25-.53a1.33,1.33,0,0,1-.87-1.29,4.63,4.63,0,0,1,0-.82c.08-.65-.81-1.19-.17-1.91a3.3,3.3,0,0,1,2.59-1,3.69,3.69,0,0,1,4,3A4.27,4.27,0,0,0,50.19,137.35Z" style="fill:#d36c71;"/><path d="M45.61,107.82c1.69.3,3.29.66,4.07,2.79s.59,2.82-1.9,2.71c-.35,0-.66.05-1,.06-1.31,0-2.67.13-3-1.66-.06-.29-.47-.49-.65-.77a1.86,1.86,0,0,1,1.52-3Z" style="fill:#d36c71;"/><path d="M93.26,118.15c2.68,0,3.73.81,4.47,2.9.29.83,0,1.15-.6,1.43a4.29,4.29,0,0,1-2.8.29c-.59-.14-1.18-.32-1.77-.47s-1.08.12-1.32-.36a4.24,4.24,0,0,1-.67-2.11,1.89,1.89,0,0,1,1.59-1.6A6.87,6.87,0,0,1,93.26,118.15Z" style="fill:#d36c71;"/><path d="M120.85,80c0,.06,0,.17-.05.17s-.11-.06.07-.15Z" style="fill:#fefefe;"/><path d="M108.82,380.1a38.41,38.41,0,0,1,3-7.37c.55-1,1.09-2.05,1.6-3.09a4.49,4.49,0,0,0,.4-1.17c.41-2.25,0-2.71-2.32-2.42h-.21c-.93-.05-1.93,1.08-2.66.25-.54-.61,0-1.73.22-2.54.86-4,1.36-8.16,3.58-11.65.92-1.45,1.92-3.42,4.24-3.42,1-1.07,2.44-1.23,3.71-1.74,2.2-.88,5.67-.11,7.11,1.69a6.62,6.62,0,0,1,1,2.61,7.81,7.81,0,0,1,0,4.76,29.08,29.08,0,0,1-2.23,4.81,32.12,32.12,0,0,1-3.66,5,21.84,21.84,0,0,1-4.25,3.8A12.76,12.76,0,0,0,116,372.2a72.2,72.2,0,0,1-5,5.26C110.19,378.23,109.92,379.47,108.82,380.1Z" style="fill:#fefefe;"/><path d="M102.61,377.41c-1.3-1-1.92-2.45-2.84-3.72-2.16-3-3.32-6.41-5.11-9.53-1.37-2.38-1.67-5-2.47-7.45a2.56,2.56,0,0,1,.63-2.27c.3-.39.81-.75.15-1.31-.11-.1.07-.66.23-.94a10.72,10.72,0,0,1,3.31-3c.25-.17.8-.28,1-.13,1.06.89,2.62-.52,3.53.83.1.15.17.15.33.06,1.22-.69,1.64.29,2.24,1s1.34,1.38,1.92,2.05.58,1.46,1.44,2a1.84,1.84,0,0,1,.62,1.67,5.91,5.91,0,0,1-.17,1.42c-1,2.58-1,5.4-1.87,8-.4,1.12.35,2.07.25,3.17-.06.63,1,.58,1.56.37a7.28,7.28,0,0,1,3.11-.37c-.42,2.09-1.79,3.63-2.5,5.47a57,57,0,0,0-2.38,6c-.6-.19-.52-.74-.63-1.18s.46-1.25-.67-1.32C103.69,378.08,103.51,376.87,102.61,377.41Z" style="fill:#fefefe;"/><path d="M109.7,313.08c1.17-.85,1.22-2.09,1.19-3.36a28.8,28.8,0,0,0,.91-3.16c.05-.58.53-.78,1-.89a1.08,1.08,0,0,1,1.23.55c.82,1.32,1.48,2.66.4,4.18.2,1.08-1.05,1.87-.59,3-.08.26-.16.56.14.71.93.46,1.44,1.37,2.15,2,1.8,1.6,1.6,3.55,1.31,5.46-.59,3.88-2.83,5.86-6.9,6.23-1.46.13-1.41,1.23-1.7,2.17a3.43,3.43,0,0,0-.93,2.22c-.14.91-.62,1-1.28.64-1.1-.64-2.36-1.14-2.79-2.54,1-1,.76-2.44,1.17-3.66.19-.56-.38-1-.76-1.37-1.87-1.79-2.39-4.1-2.47-6.52-.1-3.08,3.45-6.06,6.49-5.55A2,2,0,0,0,109.7,313.08Zm2.32,4.71c-.82,1.31-.6,2.9-1.18,4.29-.29.68-.89,1.66,0,2.22s1.44-.42,2.08-.88a1.94,1.94,0,0,0,.72-1.2c.24-1,0-2,.36-3,.13-.39-.18-.66-.5-.79A3.8,3.8,0,0,0,112,317.78Zm-5.94,4.54c.47-.26,1-.38,1.13-.67.5-1.38.88-2.8,1.27-4.22a.66.66,0,0,0-.38-.85c-.37-.14-.7-.32-1.15,0a3,3,0,0,0-1.5,3.58C105.58,320.79,105.82,321.44,106.08,322.33Z" style="fill:#163847;"/><path d="M102.61,377.41c.9-.54,1.08.67,1.65.7,1.13.06.55.83.67,1.32s0,1,.63,1.18c-.06.32,0,.75-.39.85s-.47-.21-.46-.5a1.38,1.38,0,0,0-1-1.51A2.2,2.2,0,0,1,102.61,377.41Z" style="fill:#d36c71;"/><path d="M117.08,434.66c0-.17.13-.25.23-.16s0,.2-.15.24Z" style="fill:#fefefe;"/><path d="M135,260.25a.93.93,0,0,1-.83.53c-2.53-.25-5.08.83-7.61-.1-.73-.27-1.71.62-2.33-.44a.59.59,0,0,0,.16-.08.17.17,0,0,0,0-.12c-.14,0-.2,0-.17.2a4.88,4.88,0,0,1-3.13-.74,13.3,13.3,0,0,1-5.55-5.27c-.65-1.24-1.55-2.55-1.62-4a4.69,4.69,0,0,0-.54-1.72c-.13-.31-.34-.89-.27-.93,1.2-.7-.27-1.32,0-1.95.87-2.39-.75-4.86.26-7.25a2.77,2.77,0,0,0-.14-1.59c-.16-.78-.61-1.71.32-2.4a.45.45,0,0,0,.15-.33,10.28,10.28,0,0,1,1.28-5.88,16.85,16.85,0,0,1,1.41-2.83,15.45,15.45,0,0,1,4.75-4.09,4.52,4.52,0,0,1,3.12-.75c0,.17,0,.24.17.2a.17.17,0,0,0,0-.12.59.59,0,0,0-.16-.08.93.93,0,0,1,.83-.53c2.53.25,5.08-.83,7.61.1.73.27,1.71-.62,2.33.44a.59.59,0,0,0-.16.08.17.17,0,0,0,0,.12c.14,0,.2,0,.17-.2a4.88,4.88,0,0,1,3.13.74,13.3,13.3,0,0,1,5.55,5.27c.65,1.24,1.55,2.55,1.62,4a4.69,4.69,0,0,0,.54,1.72c.13.31.34.89.27.93-1.2.7.27,1.32,0,1.95-.87,2.39.75,4.86-.26,7.25A2.77,2.77,0,0,0,146,244c.16.78.61,1.71-.32,2.4a.45.45,0,0,0-.15.33,10.28,10.28,0,0,1-1.28,5.88,16.85,16.85,0,0,1-1.41,2.83,15.45,15.45,0,0,1-4.75,4.09,4.52,4.52,0,0,1-3.12.75c0-.17,0-.24-.17-.2a.17.17,0,0,0,0,.12A.59.59,0,0,0,135,260.25Zm.84-6.25-.05,0c.55-.12.69-.73,1.29-.93,1.18-.38,1.18-2,2.34-2.55-.48-1.44.6-2.58.78-3.91a6.67,6.67,0,0,0,.08-1.8,37.72,37.72,0,0,1-.27-5.48c0-2.07.77-4.19-.1-6.18-.56-1.29-.46-2.72-1.47-3.95a8.64,8.64,0,0,0-6.92-3.43c-1.47,0-3,0-4.44,0a7.2,7.2,0,0,0-6,3.05c-1,1.39-1.24,3-1.75,4.48a6.42,6.42,0,0,0-.33,2.78,37.17,37.17,0,0,1,.27,5c-.09,2.89-.63,5.8.79,8.56.13.25-.16.66.09,1-.14-.1-.22-.07-.23.08a.46.46,0,0,0,.12,0c.28,0-.12,0,.09-.15,1,1.2,1.86,2.6,3.33,3.34a5.51,5.51,0,0,0,4.4.66c1.27.77,2.55.45,3.83.05a6,6,0,0,0,3.83-.49Z" style="fill:#e86266;"/><path d="M166.85,338.57l-.22.27c0-.06-.07-.13-.05-.18s.16-.2.29-.06Z" style="fill:#fefefe;"/><path d="M62.13,204.69c.09,1-.37,1.59-1.29,1.48-1.74-.2-3.54-.36-4.68-2,0-.06-.11-.09-.15-.14a3,3,0,0,1-.47-2.9,4.09,4.09,0,0,1,2.9-.71c.67.38,1.41.51,2.07.87C61.94,202,61.73,203.58,62.13,204.69Z" style="fill:#d36c71;"/><path d="M65.58,223c2.06.13,4,1.41,4.51,3a1.75,1.75,0,0,1-.4,2.09,1.42,1.42,0,0,1-2,0c-.66-.63-1.64-.39-2.45-.9-1.1-.7-1.06-1.76-1.25-2.66S64.52,223,65.58,223Z" style="fill:#d36c71;"/><path d="M106.77,407.05l-.44.72a.66.66,0,0,1-.07-1C106.43,406.55,106.72,406.72,106.77,407.05Z" style="fill:#54b7ca;"/><path d="M278.7,177.64a7.39,7.39,0,0,0,0-3.86,3.51,3.51,0,0,1,.59-1.88c.77-1.79,2.65-2.41,3.72-3.87,1.81-2.47,4.42-4.17,6.49-6.39.75-.81,1.45-1.67,2.19-2.51a25.85,25.85,0,0,1,3.22-3c1.17-.95,1.11-1.19.09-2.24s-1.8-2.73-3.5-3.23c-.17-1.81-2.08-2.24-2.86-3.61a7.3,7.3,0,0,0-2.41-2.25c-2.31-1.46-3.43-4-5.56-5.56a1.2,1.2,0,0,1-.62-1c0-1.1.14-2.2-1.22-2.74-.33-.13,0-1.88.37-2a5.62,5.62,0,0,0,2.56-2.31,2.41,2.41,0,0,1,1.24-.69c.66-.25,1.26-.46.81-1.37-.11-.21,0-.66.32-.6,1.14.2,1.48-.82,2-1.36,1.95-1.92,4.08-3.67,5.61-6,1.84-.55,2.16-2.79,3.86-3.49-.26-1.17.62-1.24,1.38-1.48s1-1.17,1.88-1.5a1.64,1.64,0,0,1,2.16.36c1.88,2,4.09,3.71,5.56,6.09,3.6,2.22,5.71,6,9,8.55a9.06,9.06,0,0,1,1.17,1.35c1.2,1.39,2,1.44,3.24-.07a16.85,16.85,0,0,1,2.69-2.61c1.34-1,2.07-2.68,3.44-3.7s2.08-2.47,3.57-3.25c.78-.41,1.2-1.3,1.72-2,1.38-1.75,3.16-3.07,4.64-4.69.53-.58,1.08-.44,1.66-.08a12.88,12.88,0,0,1,4.63,4c.83,1.38,2.14,2.17,3.1,3.37a55.82,55.82,0,0,0,5.28,5.27c.51.48.93,1.15,1.74,1.21.22,0,.45.08.39.32-.32,1.25.69,1.41,1.43,1.86s1.24,1.37,2,1.87c.29.18.38.58.82.78a1.4,1.4,0,0,1,.14,2.47,1.18,1.18,0,0,0-.64,1.19c.28,1.72-1,2.56-2,3.57-.69.7-1.7,1.14-1.85,2.29,0,.3-.34.4-.56.55a20.39,20.39,0,0,0-4.61,4.22c-.39.49-1.33,1-1.7,1.53-1.34,1.91-3.28,3.19-4.73,5a1,1,0,0,0,.12,1.6c.8.81,1.84,1.32,2.62,2.18a64.27,64.27,0,0,0,7.93,7.9c.91.71,1.35,1.84,2.2,2.65.44.42.79,1,1.38,1.13s.88.71,1.27,1.19a5.53,5.53,0,0,1,1.07,4.78,3.66,3.66,0,0,0,.23,1.81A2,2,0,0,1,357,180.1c-.84.21-.93.8-1.35,1.29-.73.87-1.72,1.52-2.51,2.35a65.86,65.86,0,0,1-4.88,5.31c-1.61,1.38-2.76,3.31-4.86,4.16A18,18,0,0,0,341,195c-1.4.88-2.79.71-4.19.83a2,2,0,0,1-2.28-1.9c-.1-.78-.32-1.32-1.2-1.38-.19,0-.53-.16-.53-.23.11-2.21-2.48-2.26-3.11-3.91a2.18,2.18,0,0,0-1.92-1.59c-.53,0-.94-.35-.69-1.16s-.66-1.22-1.13-1.43a8.49,8.49,0,0,1-3.34-3c-.54-.74-1.83-.84-1.73-2.08-1.52.72-1.08-.88-1.57-1.36a1.08,1.08,0,0,0-1.73,0c-.35.41-.24.92-.4,1.35-.31.85-.92-.44-1,0-.18,1.08-1.3,1.16-1.73,1.92a8.17,8.17,0,0,1-1.38,1.45,11.35,11.35,0,0,1-2.43,2c-.41.25-1.3.6-.79,1.55.17.32-.29.7-.6.69-1.46,0-1.7,1.4-2.5,2.13-.53.48-.73,1.32-1.65,1.31-.06,0-.12.06-.18.09-.83.51-.08,1.79-.91,2.15s-1.45.43-1.63,1.48a2,2,0,0,1-2,1.86,8,8,0,0,1-4.39-.8c-1.24-.61-2-1.75-3.33-2.25s-1.92-2-3.08-2.88a16.69,16.69,0,0,1-2.91-3.06,39.8,39.8,0,0,0-4.15-4.08A6.18,6.18,0,0,1,281,181a1.47,1.47,0,0,0-.79-.82A2.28,2.28,0,0,1,278.7,177.64Z" style="fill:#e86266;"/><path d="M299.57,96.08c-.47.28-1-.26-1.69-.64-1.56-.92-3.1-1.81-3.74-3.68-.25-.75-.9-1.45.21-2.06.2-.11.26-.67.06-.74-1.71-.65-.35-1.72-.1-2.22a6.59,6.59,0,0,1,7.81-3.66,6.33,6.33,0,0,1,3.05,2.56c.49.64.68,1.48,1.22,2.12a2.21,2.21,0,0,1,.25,1c.24,1.33-.9,5.19-1.87,6.06a2.74,2.74,0,0,1-1.76.92C302,95.75,301,95.93,299.57,96.08Z" style="fill:#163847;"/><path d="M320.59,94.92c-1.57.71-2.28-1.34-3.63-1,0,0-.12-.28-.07-.34.52-.59.17-1-.38-.92-1.24.1-1.53-.79-1.68-1.61a21.81,21.81,0,0,1-.29-3.77,2.09,2.09,0,0,1,.57-1.29,17.36,17.36,0,0,1,3.88-3.2c.51-.29,1.32-.91,2,0a.63.63,0,0,0,.57.11c2.94-1.1,3.9,1.58,5.56,2.9,0,1.88.79,3.69-.33,5.67C325.33,94,322.9,94.24,320.59,94.92Z" style="fill:#163847;"/><path d="M284.92,89.59c1.13,2.06-1,3.09-1.57,4.64-.14.37-.37.74-.91.63-.19,0-.57,0-.59,0-.81,2.61-2.84.78-4.25,1.06a2.65,2.65,0,0,1-2.66-1.55c-.38-.72-1-1.28-1.49-2s-1.11-1.64-.58-2.74a4.68,4.68,0,0,0,.27-1.53c.28-3,3-4.62,5.19-5s5.83,1.94,6.33,4.11C284.82,88,285.68,88.67,284.92,89.59Z" style="fill:#163847;"/><path d="M341.31,94.86a7.64,7.64,0,0,1-3.71-1c-1-.69-2.38-1.1-1.91-2.83.07-.26-.27-.61-.39-.93a5.23,5.23,0,0,1,3.2-6.41,1.49,1.49,0,0,0,.55-.23,3,3,0,0,1,2.33-1c2,.09,3.87.35,5.21,1.86a4.93,4.93,0,0,1,1.1,5.12c-.72,1.82-1.59,3.65-3.64,4.6A11.47,11.47,0,0,1,341.31,94.86Z" style="fill:#163847;"/><path d="M354.36,89.8a3.54,3.54,0,0,1,.73-3.08c.72-1.1,1-2.49,2.11-3.39.32-.25.6-.74,1-.58,1.34.54,2.59-.18,3.88-.17,1.62,0,3.79,1.58,3.8,3.18,0,.84,1.24,1,.6,1.93-.5.69-.11,1.42.06,2.15a1.59,1.59,0,0,1-.28,1,8.45,8.45,0,0,1-5.84,4.39.8.8,0,0,1-.41,0c-1.42-.5-3.05-.73-4.18-1.61a3.28,3.28,0,0,1-1.54-3.05C354.33,90.27,354.34,90,354.36,89.8Z" style="fill:#163847;"/><path d="M269.08,208.16c-.07.15-.19.21-.31.1s-.11-.21-.16-.32c.11,0,.25-.14.32-.1S269,208,269.08,208.16Z" style="fill:#54b7ca;"/><path d="M112,317.78a3.8,3.8,0,0,1,1.52.59c.32.13.63.4.5.79-.33,1-.12,2.05-.36,3a1.94,1.94,0,0,1-.72,1.2c-.64.46-1.23,1.39-2.08.88s-.33-1.54,0-2.22C111.42,320.69,111.2,319.09,112,317.78Z" style="fill:#f2bc1c;"/><path d="M106.08,322.33c-.25-.89-.5-1.54-.62-2.2a3,3,0,0,1,1.5-3.58c.45-.28.77-.1,1.15,0a.66.66,0,0,1,.38.85c-.39,1.42-.78,2.84-1.27,4.22C107.11,321.94,106.55,322.06,106.08,322.33Z" style="fill:#f2bc1c;"/><path d="M120.05,250.74c-.25-.31,0-.72-.09-1-1.42-2.76-.88-5.66-.79-8.56a37.17,37.17,0,0,0-.27-5,6.42,6.42,0,0,1,.33-2.78c.51-1.52.73-3.1,1.75-4.48a7.2,7.2,0,0,1,6-3.05c1.46,0,3-.08,4.44,0a8.64,8.64,0,0,1,6.92,3.43c1,1.23.92,2.66,1.47,3.95.87,2,.11,4.12.1,6.18a37.72,37.72,0,0,0,.27,5.48,6.67,6.67,0,0,1-.08,1.8c-.17,1.33-1.26,2.47-.78,3.91-1.16.52-1.16,2.16-2.34,2.55-.6.19-.74.81-1.29.93a4.69,4.69,0,0,1-.26-3,13.94,13.94,0,0,0-.18-3.06,2.48,2.48,0,0,0-1.94-1.89c-.73,0-1.48.36-1.57,1a6,6,0,0,0-.33,2.62,13.6,13.6,0,0,1,.12,5.07c-1.28.4-2.56.71-3.83-.05-.09-1.29-.25-2.57-.27-3.86a3.35,3.35,0,0,0-3-3.65c-1.14-.22-1.49.09-1.43,1.26.1,1.86.2,3.73.3,5.59-1.48-.75-2.31-2.14-3.33-3.34Z" style="fill:#163847;"/><path d="M131.59,254.76a13.6,13.6,0,0,0-.12-5.07,6,6,0,0,1,.33-2.62c.09-.61.85-1,1.57-1a2.48,2.48,0,0,1,1.94,1.89,13.94,13.94,0,0,1,.18,3.06,4.69,4.69,0,0,0,.26,3l.05,0c-.32-.17-.32.09-.37.28A6,6,0,0,1,131.59,254.76Z" style="fill:#fefefe;"/><path d="M123.36,254.05c-.1-1.86-.19-3.73-.3-5.59-.06-1.17.28-1.48,1.43-1.26a3.35,3.35,0,0,1,3,3.65c0,1.29.17,2.57.27,3.86A5.51,5.51,0,0,1,123.36,254.05Z" style="fill:#fefefe;"/><path d="M135.42,254.27c.05-.19,0-.45.37-.28Z" style="fill:#163847;"/><path d="M120,250.71c-.21.18.19.16-.09.15l-.12,0c0-.16.09-.19.23-.09Z" style="fill:#163847;"/><path d="M124.18,220.47a.59.59,0,0,1,.16.08.17.17,0,0,1,0,.12c-.14,0-.2,0-.17-.2Z" style="fill:#f2bc1c;"/><path d="M134.95,220.46c0,.17,0,.24-.17.2a.17.17,0,0,1,0-.12.59.59,0,0,1,.16-.08Z" style="fill:#f2bc1c;"/><path d="M124.18,260.25c0-.17,0-.24.17-.2a.17.17,0,0,1,0,.12.59.59,0,0,1-.16.08Z" style="fill:#f2bc1c;"/><path d="M135,260.25a.59.59,0,0,1-.16-.08.17.17,0,0,1,0-.12c.14,0,.2,0,.17.2Z" style="fill:#f2bc1c;"/></g></g></g></svg>