<?xml version="1.0" encoding="UTF-8"?>
<svg xmlns="http://www.w3.org/2000/svg" id="Outline" viewBox="0 0 512 512" width="512" height="512"><path d="M415.988,168a39.948,39.948,0,0,0-8.963-56.68,39.682,39.682,0,0,0-24.486-28.609A39.976,39.976,0,0,0,317.5,42.077,39.982,39.982,0,0,0,256,24.012a40.011,40.011,0,0,0-60.609,48.142C194.272,72.06,193.143,72,192,72a40,40,0,0,0-10.721,1.464A40,40,0,1,0,112.012,112a39.975,39.975,0,0,0,1.123,49.442c.1.428.207.857.324,1.281a40.044,40.044,0,0,0-24.428,46.322A23.928,23.928,0,0,0,88,216v16a8.019,8.019,0,0,0,.062.992l32,256A8,8,0,0,0,128,496H384a8,8,0,0,0,7.938-7.008l32-256A8.019,8.019,0,0,0,424,232V216a23.851,23.851,0,0,0-2.377-10.409A39.983,39.983,0,0,0,415.988,168Zm-16.127,6A24,24,0,0,1,408,192q0,.685-.038,1.363A23.9,23.9,0,0,0,400,192H384a23.9,23.9,0,0,0-16,6.126,24.011,24.011,0,0,0-8.124-4.773,7.98,7.98,0,0,0-11.723-4.658,24,24,0,1,1,0-41.39,8,8,0,0,0,12.008-6.009,24,24,0,1,1,39.7,20.7,8,8,0,0,0,0,12ZM312.485,480l5.648-96H328a8,8,0,0,0,8-8V296a8,8,0,0,0-8-8h-4.225l4.211-71.53c0-.08,0-.159,0-.239s.012-.153.012-.231a8.009,8.009,0,0,1,8-8h16a8.007,8.007,0,0,1,7.994,7.872L344.457,480ZM264,480V384h38.105l-5.648,96Zm-48.457,0L209.9,384H248v96Zm-48,0L152.006,215.872A8.007,8.007,0,0,1,160,208h16a8.009,8.009,0,0,1,8,8c0,.081.01.16.012.24s0,.154,0,.232L188.225,288H184a8,8,0,0,0-8,8v80a8,8,0,0,0,8,8h9.867l5.648,96Zm53.084-343.764A25.018,25.018,0,0,1,224,136a23.986,23.986,0,0,1,12.153,3.305,8,8,0,0,0,12.008-6.012l.012-.108c.015-.1.03-.193.042-.29a23.972,23.972,0,0,1,32.3-19.326,39.993,39.993,0,0,0,11.756,35.252,24.1,24.1,0,0,1-4.409,5.173,8,8,0,0,0,0,12.008,23.958,23.958,0,0,1,6.762,26H272a23.9,23.9,0,0,0-16,6.126,24.064,24.064,0,0,0-5.638-3.757,23.526,23.526,0,0,1-2.2-7.663,8,8,0,0,0-12.008-6.011,24.008,24.008,0,0,1-26.815-1.69,24.251,24.251,0,0,1-6.675-8A23.676,23.676,0,0,1,200,160a23.98,23.98,0,0,1,20.627-23.764ZM320,304v64H192V304ZM200.006,215.875A8.006,8.006,0,0,1,208,208h32a8.009,8.009,0,0,1,8,8v72H204.253ZM264,288V216a8.009,8.009,0,0,1,8-8h32a8.006,8.006,0,0,1,7.994,7.872L307.747,288ZM344,48a24,24,0,0,1,20.694,36.154A8,8,0,0,0,370.7,96.161a23.974,23.974,0,0,1,15.161,7.9c-.621-.029-1.241-.06-1.864-.06a39.945,39.945,0,0,0-37.278,25.464,39.977,39.977,0,0,0-39.548,10.817c-.17-.109-.345-.209-.513-.322A24.016,24.016,0,0,1,296,120a23.758,23.758,0,0,1,1.35-7.953A24.081,24.081,0,0,1,317.3,96.161a8,8,0,0,0,6.009-12.007A24,24,0,0,1,344,48ZM232,32a24,24,0,0,1,18,8.139,8,8,0,0,0,12,0,23.993,23.993,0,1,1,20.7,39.7,8,8,0,0,0-6.01,12.007,23.971,23.971,0,0,1,2.127,4.757,39.84,39.84,0,0,0-42.432,21.206,23.954,23.954,0,0,1-1.084-25.962A8,8,0,0,0,229.3,79.839,24,24,0,0,1,232,32ZM144,64a23.945,23.945,0,0,1,23.839,21.3,8,8,0,0,0,12.008,6.009,24,24,0,0,1,34.31,29.92A39.717,39.717,0,0,0,192,135.992a23.612,23.612,0,0,1-3.437-.236A39.975,39.975,0,0,0,122.9,124.6a24.014,24.014,0,0,1,5.243-6.6,8,8,0,0,0,0-12A23.99,23.99,0,0,1,144,64ZM125.3,176.161a8,8,0,0,0,6.01-12.006,23.774,23.774,0,0,1-2.916-7.843,24,24,0,1,1,44.305,7.841,8,8,0,0,0,6,12.007,23.935,23.935,0,0,1,10.728,3.958A40.435,40.435,0,0,0,198,190.387a23.517,23.517,0,0,1,1.164,3.307A24.028,24.028,0,0,0,192,198.126,23.9,23.9,0,0,0,176,192H160a23.9,23.9,0,0,0-16,6.126A23.9,23.9,0,0,0,128,192H112a23.931,23.931,0,0,0-6.961,1.033A23.922,23.922,0,0,1,125.3,176.161ZM104,231.5V216a8.009,8.009,0,0,1,8-8h16a8.009,8.009,0,0,1,8,8c0,.078.009.154.012.232s0,.158,0,.238L151.515,480H135.062Zm304,0L376.938,480H360.485l15.5-263.53c0-.081,0-.159,0-.239s.012-.153.012-.231a8.009,8.009,0,0,1,8-8h16a8.009,8.009,0,0,1,8,8Z"/><path d="M288,328H224a8,8,0,0,0,0,16h64a8,8,0,0,0,0-16Z"/></svg>
